<?xml version="1.0" encoding="UTF-8" standalone="no"?>
<!DOCTYPE svg PUBLIC "-//W3C//DTD SVG 1.1//EN"
 "http://www.w3.org/Graphics/SVG/1.1/DTD/svg11.dtd">
<!-- Generated by graphviz version 2.40.1 (20161225.0304)
 -->
<!-- Title: g Pages: 1 -->
<svg width="685pt" height="780pt"
 viewBox="0.00 0.00 685.43 780.00" xmlns="http://www.w3.org/2000/svg" xmlns:xlink="http://www.w3.org/1999/xlink">
<g id="graph0" class="graph" transform="scale(1 1) rotate(0) translate(4 776)">
<title>g</title>
<polygon fill="#ffffff" stroke="transparent" points="-4,4 -4,-776 681.4286,-776 681.4286,4 -4,4"/>
<g id="clust1" class="cluster">
<title>cluster0</title>
<polygon fill="none" stroke="#000000" stroke-width="2" points="132,-64 132,-668 318,-668 318,-64 132,-64"/>
<text text-anchor="start" x="204.3862" y="-653.8" font-family="Times,serif" font-weight="bold" font-size="14.00" fill="#000000">System</text>
</g>
<g id="clust2" class="cluster">
<title>cluster1</title>
<polygon fill="none" stroke="#000000" stroke-width="2" points="8,-676 8,-764 234,-764 234,-676 8,-676"/>
<text text-anchor="start" x="101.562" y="-749.8" font-family="Times,serif" font-weight="bold" font-size="14.00" fill="#000000">Actor1</text>
</g>
<g id="clust3" class="cluster">
<title>cluster2</title>
<polygon fill="none" stroke="#000000" stroke-width="2" points="242,-676 242,-764 354,-764 354,-676 242,-676"/>
<text text-anchor="start" x="278.562" y="-749.8" font-family="Times,serif" font-weight="bold" font-size="14.00" fill="#000000">Actor2</text>
</g>
<!-- EAID_7DCF7A4C_FB05_48a1_8F24_64481687C395___EAID_015FC1C4_BD10_49f6_A3C6_25983C146234 -->
<g id="node1" class="node">
<title>EAID_7DCF7A4C_FB05_48a1_8F24_64481687C395___EAID_015FC1C4_BD10_49f6_A3C6_25983C146234</title>
<image xlink:href="img/activity_icon.png" width="30px" height="20px" preserveAspectRatio="xMinYMin meet" x="163" y="-632"/>
<text text-anchor="start" x="149.6172" y="-597.8" font-family="Times,serif" font-weight="bold" font-size="14.00" fill="#000000">Actor1:b2</text>
</g>
<!-- EAID_015FC1C4_BD10_49f6_A3C6_25983C146234___EAID_8B3B4CBD_5310_46f7_B837_DFE2F2647998 -->
<g id="node6" class="node">
<title>EAID_015FC1C4_BD10_49f6_A3C6_25983C146234___EAID_8B3B4CBD_5310_46f7_B837_DFE2F2647998</title>
<image xlink:href="img/activity_icon.png" width="30px" height="20px" preserveAspectRatio="xMinYMin meet" x="257.5" y="-546"/>
<text text-anchor="start" x="256.5552" y="-511.8" font-family="Times,serif" font-weight="bold" font-size="14.00" fill="#000000">b2:b1</text>
</g>
<!-- EAID_7DCF7A4C_FB05_48a1_8F24_64481687C395___EAID_015FC1C4_BD10_49f6_A3C6_25983C146234&#45;&gt;EAID_015FC1C4_BD10_49f6_A3C6_25983C146234___EAID_8B3B4CBD_5310_46f7_B837_DFE2F2647998 -->
<g id="edge1" class="edge">
<title>EAID_7DCF7A4C_FB05_48a1_8F24_64481687C395___EAID_015FC1C4_BD10_49f6_A3C6_25983C146234&#45;&gt;EAID_015FC1C4_BD10_49f6_A3C6_25983C146234___EAID_8B3B4CBD_5310_46f7_B837_DFE2F2647998</title>
<path fill="none" stroke="#000000" d="M205.4414,-587.8941C215.3836,-578.798 226.747,-568.4017 237.2364,-558.805"/>
<polygon fill="#000000" stroke="#000000" points="239.6715,-561.321 244.687,-551.9885 234.9464,-556.1563 239.6715,-561.321"/>
</g>
<!-- EAID_02074B64_AFA1_48ec_BCA5_328787D1DBA8 -->
<g id="node17" class="node">
<title>EAID_02074B64_AFA1_48ec_BCA5_328787D1DBA8</title>
<text text-anchor="middle" x="446" y="-13.8" font-family="Times,serif" font-size="14.00" fill="#000000">EAID_02074B64_AFA1_48ec_BCA5_328787D1DBA8</text>
</g>
<!-- EAID_7DCF7A4C_FB05_48a1_8F24_64481687C395___EAID_015FC1C4_BD10_49f6_A3C6_25983C146234&#45;&gt;EAID_02074B64_AFA1_48ec_BCA5_328787D1DBA8 -->
<g id="edge20" class="edge">
<title>EAID_7DCF7A4C_FB05_48a1_8F24_64481687C395___EAID_015FC1C4_BD10_49f6_A3C6_25983C146234&#45;&gt;EAID_02074B64_AFA1_48ec_BCA5_328787D1DBA8</title>
<path fill="none" stroke="#000000" stroke-dasharray="5,2" d="M216.2081,-591.9776C219.1547,-590.5718 222.1078,-589.2286 225,-588 403.5566,-512.1509 636,-634.9989 636,-441 636,-441 636,-441 636,-183 636,-127.7439 639.1403,-103.0035 600,-64 590.6673,-54.7 567.2639,-46.0016 541.4408,-38.7267"/>
<polygon fill="#000000" stroke="#000000" points="542.0177,-35.2565 531.4497,-36.0099 540.1809,-42.0112 542.0177,-35.2565"/>
</g>
<!-- EAID_7DCF7A4C_FB05_48a1_8F24_64481687C395___EAID_8B3B4CBD_5310_46f7_B837_DFE2F2647998 -->
<g id="node2" class="node">
<title>EAID_7DCF7A4C_FB05_48a1_8F24_64481687C395___EAID_8B3B4CBD_5310_46f7_B837_DFE2F2647998</title>
<image xlink:href="img/activity_icon.png" width="30px" height="20px" preserveAspectRatio="xMinYMin meet" x="174" y="-546"/>
<text text-anchor="start" x="160.6172" y="-511.8" font-family="Times,serif" font-weight="bold" font-size="14.00" fill="#000000">Actor1:b1</text>
</g>
<!-- EAID_8B3B4CBD_5310_46f7_B837_DFE2F2647998___EAID_81C64E6B_5C6E_41f2_938B_E21038C30E33 -->
<g id="node4" class="node">
<title>EAID_8B3B4CBD_5310_46f7_B837_DFE2F2647998___EAID_81C64E6B_5C6E_41f2_938B_E21038C30E33</title>
<image xlink:href="img/activity_icon.png" width="30px" height="20px" preserveAspectRatio="xMinYMin meet" x="203.5" y="-460"/>
<text text-anchor="start" x="202.9482" y="-425.8" font-family="Times,serif" font-weight="bold" font-size="14.00" fill="#000000">b1:c1</text>
</g>
<!-- EAID_7DCF7A4C_FB05_48a1_8F24_64481687C395___EAID_8B3B4CBD_5310_46f7_B837_DFE2F2647998&#45;&gt;EAID_8B3B4CBD_5310_46f7_B837_DFE2F2647998___EAID_81C64E6B_5C6E_41f2_938B_E21038C30E33 -->
<g id="edge3" class="edge">
<title>EAID_7DCF7A4C_FB05_48a1_8F24_64481687C395___EAID_8B3B4CBD_5310_46f7_B837_DFE2F2647998&#45;&gt;EAID_8B3B4CBD_5310_46f7_B837_DFE2F2647998___EAID_81C64E6B_5C6E_41f2_938B_E21038C30E33</title>
<path fill="none" stroke="#000000" d="M197.5441,-501.6623C200.2875,-493.5266 203.3753,-484.3699 206.3043,-475.6839"/>
<polygon fill="#000000" stroke="#000000" points="209.6381,-476.7507 209.517,-466.1566 203.0051,-474.514 209.6381,-476.7507"/>
</g>
<!-- EAID_7DCF7A4C_FB05_48a1_8F24_64481687C395___EAID_8B3B4CBD_5310_46f7_B837_DFE2F2647998&#45;&gt;EAID_02074B64_AFA1_48ec_BCA5_328787D1DBA8 -->
<g id="edge21" class="edge">
<title>EAID_7DCF7A4C_FB05_48a1_8F24_64481687C395___EAID_8B3B4CBD_5310_46f7_B837_DFE2F2647998&#45;&gt;EAID_02074B64_AFA1_48ec_BCA5_328787D1DBA8</title>
<path fill="none" stroke="#000000" stroke-dasharray="5,2" d="M227.1158,-506.4679C230.1105,-504.9337 233.0977,-503.4285 236,-502 377.8736,-432.1693 560,-513.1279 560,-355 560,-355 560,-355 560,-183 560,-126.2972 549.3204,-108.3585 514,-64 507.2719,-55.5503 498.5684,-48.0723 489.6486,-41.7311"/>
<polygon fill="#000000" stroke="#000000" points="491.3458,-38.6555 481.0878,-36.0051 487.454,-44.474 491.3458,-38.6555"/>
</g>
<!-- EAID_C75AC92B_2923_4afb_8E22_A991C5F1A9D7___EAID_015FC1C4_BD10_49f6_A3C6_25983C146234 -->
<g id="node3" class="node">
<title>EAID_C75AC92B_2923_4afb_8E22_A991C5F1A9D7___EAID_015FC1C4_BD10_49f6_A3C6_25983C146234</title>
<image xlink:href="img/activity_icon.png" width="30px" height="20px" preserveAspectRatio="xMinYMin meet" x="257" y="-632"/>
<text text-anchor="start" x="243.6172" y="-597.8" font-family="Times,serif" font-weight="bold" font-size="14.00" fill="#000000">Actor2:b2</text>
</g>
<!-- EAID_C75AC92B_2923_4afb_8E22_A991C5F1A9D7___EAID_015FC1C4_BD10_49f6_A3C6_25983C146234&#45;&gt;EAID_015FC1C4_BD10_49f6_A3C6_25983C146234___EAID_8B3B4CBD_5310_46f7_B837_DFE2F2647998 -->
<g id="edge5" class="edge">
<title>EAID_C75AC92B_2923_4afb_8E22_A991C5F1A9D7___EAID_015FC1C4_BD10_49f6_A3C6_25983C146234&#45;&gt;EAID_015FC1C4_BD10_49f6_A3C6_25983C146234___EAID_8B3B4CBD_5310_46f7_B837_DFE2F2647998</title>
<path fill="none" stroke="#000000" d="M272,-587.6623C272,-579.7016 272,-570.7633 272,-562.2449"/>
<polygon fill="#000000" stroke="#000000" points="275.5001,-562.1566 272,-552.1566 268.5001,-562.1566 275.5001,-562.1566"/>
</g>
<!-- EAID_C75AC92B_2923_4afb_8E22_A991C5F1A9D7___EAID_015FC1C4_BD10_49f6_A3C6_25983C146234&#45;&gt;EAID_02074B64_AFA1_48ec_BCA5_328787D1DBA8 -->
<g id="edge22" class="edge">
<title>EAID_C75AC92B_2923_4afb_8E22_A991C5F1A9D7___EAID_015FC1C4_BD10_49f6_A3C6_25983C146234&#45;&gt;EAID_02074B64_AFA1_48ec_BCA5_328787D1DBA8</title>
<path fill="none" stroke="#000000" stroke-dasharray="5,2" d="M310.1337,-612.1289C396.146,-609.3584 601.527,-597.9724 650,-552 686.6222,-517.2671 674,-491.4733 674,-441 674,-441 674,-441 674,-183 674,-129.0462 687.7143,-102.583 650,-64 639.6542,-53.4159 615.2056,-44.9076 586.6869,-38.2265"/>
<polygon fill="#000000" stroke="#000000" points="587.3968,-34.7988 576.8738,-36.0304 585.868,-41.6299 587.3968,-34.7988"/>
</g>
<!-- EAID_81C64E6B_5C6E_41f2_938B_E21038C30E33___EAID_015FC1C4_BD10_49f6_A3C6_25983C146234 -->
<g id="node7" class="node">
<title>EAID_81C64E6B_5C6E_41f2_938B_E21038C30E33___EAID_015FC1C4_BD10_49f6_A3C6_25983C146234</title>
<image xlink:href="img/activity_icon.png" width="30px" height="20px" preserveAspectRatio="xMinYMin meet" x="268.5" y="-374"/>
<text text-anchor="start" x="267.9482" y="-339.8" font-family="Times,serif" font-weight="bold" font-size="14.00" fill="#000000">c1:b2</text>
</g>
<!-- EAID_8B3B4CBD_5310_46f7_B837_DFE2F2647998___EAID_81C64E6B_5C6E_41f2_938B_E21038C30E33&#45;&gt;EAID_81C64E6B_5C6E_41f2_938B_E21038C30E33___EAID_015FC1C4_BD10_49f6_A3C6_25983C146234 -->
<g id="edge7" class="edge">
<title>EAID_8B3B4CBD_5310_46f7_B837_DFE2F2647998___EAID_81C64E6B_5C6E_41f2_938B_E21038C30E33&#45;&gt;EAID_81C64E6B_5C6E_41f2_938B_E21038C30E33___EAID_015FC1C4_BD10_49f6_A3C6_25983C146234</title>
<path fill="none" stroke="#000000" d="M237.1506,-415.6623C243.6303,-407.0892 250.9668,-397.3824 257.8411,-388.2872"/>
<polygon fill="#000000" stroke="#000000" points="260.7488,-390.2447 263.9863,-380.1566 255.1644,-386.0239 260.7488,-390.2447"/>
</g>
<!-- EAID_81C64E6B_5C6E_41f2_938B_E21038C30E33___EAID_15DC104F_AA4F_49c6_A44C_550C8712D8F7 -->
<g id="node9" class="node">
<title>EAID_81C64E6B_5C6E_41f2_938B_E21038C30E33___EAID_15DC104F_AA4F_49c6_A44C_550C8712D8F7</title>
<image xlink:href="img/activity_icon.png" width="30px" height="20px" preserveAspectRatio="xMinYMin meet" x="196" y="-374"/>
<text text-anchor="start" x="195.8413" y="-339.8" font-family="Times,serif" font-weight="bold" font-size="14.00" fill="#000000">c1:e1</text>
</g>
<!-- EAID_8B3B4CBD_5310_46f7_B837_DFE2F2647998___EAID_81C64E6B_5C6E_41f2_938B_E21038C30E33&#45;&gt;EAID_81C64E6B_5C6E_41f2_938B_E21038C30E33___EAID_15DC104F_AA4F_49c6_A44C_550C8712D8F7 -->
<g id="edge8" class="edge">
<title>EAID_8B3B4CBD_5310_46f7_B837_DFE2F2647998___EAID_81C64E6B_5C6E_41f2_938B_E21038C30E33&#45;&gt;EAID_81C64E6B_5C6E_41f2_938B_E21038C30E33___EAID_15DC104F_AA4F_49c6_A44C_550C8712D8F7</title>
<path fill="none" stroke="#000000" d="M215.9376,-415.6623C215.2897,-407.7016 214.5621,-398.7633 213.8688,-390.2449"/>
<polygon fill="#000000" stroke="#000000" points="217.3475,-389.8397 213.0476,-380.1566 210.3705,-390.4076 217.3475,-389.8397"/>
</g>
<!-- EAID_8B3B4CBD_5310_46f7_B837_DFE2F2647998___EAID_81C64E6B_5C6E_41f2_938B_E21038C30E33&#45;&gt;EAID_02074B64_AFA1_48ec_BCA5_328787D1DBA8 -->
<g id="edge23" class="edge">
<title>EAID_8B3B4CBD_5310_46f7_B837_DFE2F2647998___EAID_81C64E6B_5C6E_41f2_938B_E21038C30E33&#45;&gt;EAID_02074B64_AFA1_48ec_BCA5_328787D1DBA8</title>
<path fill="none" stroke="#000000" stroke-dasharray="5,2" d="M245.2455,-438.5216C319.8626,-430.095 522,-395.5855 522,-269 522,-269 522,-269 522,-183 522,-127.7439 512.7215,-112.3652 486,-64 482.1136,-56.9656 477.0132,-50.057 471.7611,-43.8183"/>
<polygon fill="#000000" stroke="#000000" points="474.3609,-41.4748 465.1071,-36.3155 469.1237,-46.1194 474.3609,-41.4748"/>
</g>
<!-- EAID_1C18E5F5_399C_43a8_BC4E_1593B863462C___EAID_8B3B4CBD_5310_46f7_B837_DFE2F2647998 -->
<g id="node5" class="node">
<title>EAID_1C18E5F5_399C_43a8_BC4E_1593B863462C___EAID_8B3B4CBD_5310_46f7_B837_DFE2F2647998</title>
<image xlink:href="img/activity_icon.png" width="30px" height="20px" preserveAspectRatio="xMinYMin meet" x="152.5" y="-116"/>
<text text-anchor="start" x="151.9482" y="-81.8" font-family="Times,serif" font-weight="bold" font-size="14.00" fill="#000000">e2:b1</text>
</g>
<!-- EAID_1C18E5F5_399C_43a8_BC4E_1593B863462C___EAID_8B3B4CBD_5310_46f7_B837_DFE2F2647998&#45;&gt;EAID_8B3B4CBD_5310_46f7_B837_DFE2F2647998___EAID_81C64E6B_5C6E_41f2_938B_E21038C30E33 -->
<g id="edge9" class="edge">
<title>EAID_1C18E5F5_399C_43a8_BC4E_1593B863462C___EAID_8B3B4CBD_5310_46f7_B837_DFE2F2647998&#45;&gt;EAID_8B3B4CBD_5310_46f7_B837_DFE2F2647998___EAID_81C64E6B_5C6E_41f2_938B_E21038C30E33</title>
<path fill="none" stroke="#000000" d="M162.993,-122.0559C155.9406,-172.4578 144.7465,-289.0544 175,-380 178.2208,-389.682 183.529,-399.1796 189.3357,-407.6901"/>
<polygon fill="#000000" stroke="#000000" points="186.5444,-409.8029 195.2497,-415.8419 192.2104,-405.6923 186.5444,-409.8029"/>
</g>
<!-- EAID_1C18E5F5_399C_43a8_BC4E_1593B863462C___EAID_8B3B4CBD_5310_46f7_B837_DFE2F2647998&#45;&gt;EAID_02074B64_AFA1_48ec_BCA5_328787D1DBA8 -->
<g id="edge24" class="edge">
<title>EAID_1C18E5F5_399C_43a8_BC4E_1593B863462C___EAID_8B3B4CBD_5310_46f7_B837_DFE2F2647998&#45;&gt;EAID_02074B64_AFA1_48ec_BCA5_328787D1DBA8</title>
<path fill="none" stroke="#000000" stroke-dasharray="5,2" d="M190.8131,-71.9412C194.6447,-68.9026 198.7551,-66.1271 203,-64 222.142,-54.4082 263.2494,-45.3085 306.3027,-37.7732"/>
<polygon fill="#000000" stroke="#000000" points="307.1261,-41.1831 316.3896,-36.0413 305.9415,-34.284 307.1261,-41.1831"/>
</g>
<!-- EAID_015FC1C4_BD10_49f6_A3C6_25983C146234___EAID_8B3B4CBD_5310_46f7_B837_DFE2F2647998&#45;&gt;EAID_8B3B4CBD_5310_46f7_B837_DFE2F2647998___EAID_81C64E6B_5C6E_41f2_938B_E21038C30E33 -->
<g id="edge10" class="edge">
<title>EAID_015FC1C4_BD10_49f6_A3C6_25983C146234___EAID_8B3B4CBD_5310_46f7_B837_DFE2F2647998&#45;&gt;EAID_8B3B4CBD_5310_46f7_B837_DFE2F2647998___EAID_81C64E6B_5C6E_41f2_938B_E21038C30E33</title>
<path fill="none" stroke="#000000" d="M256.0903,-501.6623C250.817,-493.2642 244.8607,-483.7781 239.2514,-474.8448"/>
<polygon fill="#000000" stroke="#000000" points="242.0778,-472.7643 233.796,-466.1566 236.1496,-476.4867 242.0778,-472.7643"/>
</g>
<!-- EAID_015FC1C4_BD10_49f6_A3C6_25983C146234___EAID_8B3B4CBD_5310_46f7_B837_DFE2F2647998&#45;&gt;EAID_02074B64_AFA1_48ec_BCA5_328787D1DBA8 -->
<g id="edge25" class="edge">
<title>EAID_015FC1C4_BD10_49f6_A3C6_25983C146234___EAID_8B3B4CBD_5310_46f7_B837_DFE2F2647998&#45;&gt;EAID_02074B64_AFA1_48ec_BCA5_328787D1DBA8</title>
<path fill="none" stroke="#000000" stroke-dasharray="5,2" d="M299.0212,-525.2505C365.62,-520.3794 535.0635,-504.4092 574,-466 609.9325,-430.5541 598,-405.4733 598,-355 598,-355 598,-355 598,-183 598,-129.0462 609.2671,-104.8319 574,-64 565.5131,-54.1739 554.767,-46.4467 543.1237,-40.3701"/>
<polygon fill="#000000" stroke="#000000" points="544.599,-37.1961 534.0677,-36.0376 541.578,-43.5106 544.599,-37.1961"/>
</g>
<!-- EAID_81C64E6B_5C6E_41f2_938B_E21038C30E33___EAID_015FC1C4_BD10_49f6_A3C6_25983C146234&#45;&gt;EAID_015FC1C4_BD10_49f6_A3C6_25983C146234___EAID_8B3B4CBD_5310_46f7_B837_DFE2F2647998 -->
<g id="edge11" class="edge">
<title>EAID_81C64E6B_5C6E_41f2_938B_E21038C30E33___EAID_015FC1C4_BD10_49f6_A3C6_25983C146234&#45;&gt;EAID_015FC1C4_BD10_49f6_A3C6_25983C146234___EAID_8B3B4CBD_5310_46f7_B837_DFE2F2647998</title>
<path fill="none" stroke="#000000" d="M281.3986,-380.0405C279.5159,-409.4793 276.3787,-458.5324 274.2517,-491.7913"/>
<polygon fill="#000000" stroke="#000000" points="270.745,-491.7867 273.5995,-501.9897 277.7307,-492.2335 270.745,-491.7867"/>
</g>
<!-- EAID_81C64E6B_5C6E_41f2_938B_E21038C30E33___EAID_015FC1C4_BD10_49f6_A3C6_25983C146234&#45;&gt;EAID_02074B64_AFA1_48ec_BCA5_328787D1DBA8 -->
<g id="edge26" class="edge">
<title>EAID_81C64E6B_5C6E_41f2_938B_E21038C30E33___EAID_015FC1C4_BD10_49f6_A3C6_25983C146234&#45;&gt;EAID_02074B64_AFA1_48ec_BCA5_328787D1DBA8</title>
<path fill="none" stroke="#000000" stroke-dasharray="5,2" d="M310.0763,-349.6401C355.1191,-340.113 442.2614,-318.8758 460,-294 513.9086,-218.4011 478.3102,-99.3728 457.7255,-45.7811"/>
<polygon fill="#000000" stroke="#000000" points="460.8937,-44.2751 453.9605,-36.2638 454.3845,-46.8501 460.8937,-44.2751"/>
</g>
<!-- EAID_1C18E5F5_399C_43a8_BC4E_1593B863462C___EAID_015FC1C4_BD10_49f6_A3C6_25983C146234 -->
<g id="node8" class="node">
<title>EAID_1C18E5F5_399C_43a8_BC4E_1593B863462C___EAID_015FC1C4_BD10_49f6_A3C6_25983C146234</title>
<image xlink:href="img/activity_icon.png" width="30px" height="20px" preserveAspectRatio="xMinYMin meet" x="224.5" y="-116"/>
<text text-anchor="start" x="223.9482" y="-81.8" font-family="Times,serif" font-weight="bold" font-size="14.00" fill="#000000">e2:b2</text>
</g>
<!-- EAID_1C18E5F5_399C_43a8_BC4E_1593B863462C___EAID_015FC1C4_BD10_49f6_A3C6_25983C146234&#45;&gt;EAID_015FC1C4_BD10_49f6_A3C6_25983C146234___EAID_8B3B4CBD_5310_46f7_B837_DFE2F2647998 -->
<g id="edge12" class="edge">
<title>EAID_1C18E5F5_399C_43a8_BC4E_1593B863462C___EAID_015FC1C4_BD10_49f6_A3C6_25983C146234&#45;&gt;EAID_015FC1C4_BD10_49f6_A3C6_25983C146234___EAID_8B3B4CBD_5310_46f7_B837_DFE2F2647998</title>
<path fill="none" stroke="#000000" d="M211.8099,-114.7169C197.9906,-125.406 182.5547,-140.3629 175,-158 140.8085,-237.8233 151.373,-413.9675 182,-466 196.6317,-490.8579 212.153,-485.7729 236,-502 236.1809,-502.1231 236.3622,-502.2465 236.544,-502.3704"/>
<polygon fill="#000000" stroke="#000000" points="234.6843,-505.3389 244.9112,-508.1067 238.6424,-499.5654 234.6843,-505.3389"/>
</g>
<!-- EAID_1C18E5F5_399C_43a8_BC4E_1593B863462C___EAID_015FC1C4_BD10_49f6_A3C6_25983C146234&#45;&gt;EAID_02074B64_AFA1_48ec_BCA5_328787D1DBA8 -->
<g id="edge27" class="edge">
<title>EAID_1C18E5F5_399C_43a8_BC4E_1593B863462C___EAID_015FC1C4_BD10_49f6_A3C6_25983C146234&#45;&gt;EAID_02074B64_AFA1_48ec_BCA5_328787D1DBA8</title>
<path fill="none" stroke="#000000" stroke-dasharray="5,2" d="M266.1778,-72.6555C270.6015,-69.4359 275.2847,-66.4191 280,-64 300.2809,-53.5953 323.2006,-45.3085 345.3898,-38.8009"/>
<polygon fill="#000000" stroke="#000000" points="346.5139,-42.1203 355.1817,-36.0276 344.6063,-35.3852 346.5139,-42.1203"/>
</g>
<!-- EAID_15DC104F_AA4F_49c6_A44C_550C8712D8F7___EAID_4B9EC7FE_4F5F_4904_844F_92C785543B42 -->
<g id="node11" class="node">
<title>EAID_15DC104F_AA4F_49c6_A44C_550C8712D8F7___EAID_4B9EC7FE_4F5F_4904_844F_92C785543B42</title>
<image xlink:href="img/activity_icon.png" width="30px" height="20px" preserveAspectRatio="xMinYMin meet" x="196" y="-288"/>
<text text-anchor="start" x="195.8413" y="-253.8" font-family="Times,serif" font-weight="bold" font-size="14.00" fill="#000000">e1:c2</text>
</g>
<!-- EAID_81C64E6B_5C6E_41f2_938B_E21038C30E33___EAID_15DC104F_AA4F_49c6_A44C_550C8712D8F7&#45;&gt;EAID_15DC104F_AA4F_49c6_A44C_550C8712D8F7___EAID_4B9EC7FE_4F5F_4904_844F_92C785543B42 -->
<g id="edge13" class="edge">
<title>EAID_81C64E6B_5C6E_41f2_938B_E21038C30E33___EAID_15DC104F_AA4F_49c6_A44C_550C8712D8F7&#45;&gt;EAID_15DC104F_AA4F_49c6_A44C_550C8712D8F7___EAID_4B9EC7FE_4F5F_4904_844F_92C785543B42</title>
<path fill="none" stroke="#000000" d="M211,-329.6623C211,-321.7016 211,-312.7633 211,-304.2449"/>
<polygon fill="#000000" stroke="#000000" points="214.5001,-304.1566 211,-294.1566 207.5001,-304.1566 214.5001,-304.1566"/>
</g>
<!-- EAID_81C64E6B_5C6E_41f2_938B_E21038C30E33___EAID_15DC104F_AA4F_49c6_A44C_550C8712D8F7&#45;&gt;EAID_02074B64_AFA1_48ec_BCA5_328787D1DBA8 -->
<g id="edge28" class="edge">
<title>EAID_81C64E6B_5C6E_41f2_938B_E21038C30E33___EAID_15DC104F_AA4F_49c6_A44C_550C8712D8F7&#45;&gt;EAID_02074B64_AFA1_48ec_BCA5_328787D1DBA8</title>
<path fill="none" stroke="#000000" stroke-dasharray="5,2" d="M238.2505,-335.4755C241.167,-333.5672 244.1203,-331.7079 247,-330 277.7721,-311.7496 289.9158,-314.8353 319,-294 363.1986,-262.3372 377.9356,-254.5665 406,-208 436.855,-156.8031 444.1569,-85.368 445.7309,-46.2973"/>
<polygon fill="#000000" stroke="#000000" points="449.2329,-46.2809 446.0377,-36.1793 442.2361,-46.0686 449.2329,-46.2809"/>
</g>
<!-- EAID_4B9EC7FE_4F5F_4904_844F_92C785543B42___EAID_1C18E5F5_399C_43a8_BC4E_1593B863462C -->
<g id="node10" class="node">
<title>EAID_4B9EC7FE_4F5F_4904_844F_92C785543B42___EAID_1C18E5F5_399C_43a8_BC4E_1593B863462C</title>
<image xlink:href="img/activity_icon.png" width="30px" height="20px" preserveAspectRatio="xMinYMin meet" x="196" y="-202"/>
<text text-anchor="start" x="195.8413" y="-167.8" font-family="Times,serif" font-weight="bold" font-size="14.00" fill="#000000">c2:e2</text>
</g>
<!-- EAID_4B9EC7FE_4F5F_4904_844F_92C785543B42___EAID_1C18E5F5_399C_43a8_BC4E_1593B863462C&#45;&gt;EAID_1C18E5F5_399C_43a8_BC4E_1593B863462C___EAID_8B3B4CBD_5310_46f7_B837_DFE2F2647998 -->
<g id="edge14" class="edge">
<title>EAID_4B9EC7FE_4F5F_4904_844F_92C785543B42___EAID_1C18E5F5_399C_43a8_BC4E_1593B863462C&#45;&gt;EAID_1C18E5F5_399C_43a8_BC4E_1593B863462C___EAID_8B3B4CBD_5310_46f7_B837_DFE2F2647998</title>
<path fill="none" stroke="#000000" d="M198.0365,-157.6623C193.7846,-149.3516 188.9875,-139.9756 184.4589,-131.1242"/>
<polygon fill="#000000" stroke="#000000" points="187.5415,-129.4649 179.8708,-122.1566 181.3098,-132.6533 187.5415,-129.4649"/>
</g>
<!-- EAID_4B9EC7FE_4F5F_4904_844F_92C785543B42___EAID_1C18E5F5_399C_43a8_BC4E_1593B863462C&#45;&gt;EAID_1C18E5F5_399C_43a8_BC4E_1593B863462C___EAID_015FC1C4_BD10_49f6_A3C6_25983C146234 -->
<g id="edge15" class="edge">
<title>EAID_4B9EC7FE_4F5F_4904_844F_92C785543B42___EAID_1C18E5F5_399C_43a8_BC4E_1593B863462C&#45;&gt;EAID_1C18E5F5_399C_43a8_BC4E_1593B863462C___EAID_015FC1C4_BD10_49f6_A3C6_25983C146234</title>
<path fill="none" stroke="#000000" d="M219.2495,-157.6623C221.8983,-149.5266 224.8796,-140.3699 227.7076,-131.6839"/>
<polygon fill="#000000" stroke="#000000" points="231.0416,-132.7489 230.8095,-122.1566 224.3855,-130.5817 231.0416,-132.7489"/>
</g>
<!-- EAID_4B9EC7FE_4F5F_4904_844F_92C785543B42___EAID_1C18E5F5_399C_43a8_BC4E_1593B863462C&#45;&gt;EAID_02074B64_AFA1_48ec_BCA5_328787D1DBA8 -->
<g id="edge29" class="edge">
<title>EAID_4B9EC7FE_4F5F_4904_844F_92C785543B42___EAID_1C18E5F5_399C_43a8_BC4E_1593B863462C&#45;&gt;EAID_02074B64_AFA1_48ec_BCA5_328787D1DBA8</title>
<path fill="none" stroke="#000000" stroke-dasharray="5,2" d="M238.2836,-160.2427C250.3553,-149.3924 264.2252,-135.7878 275,-122 293.2621,-98.6312 285.0816,-82.8242 308,-64 320.3633,-53.8453 335.0586,-45.8995 350.1748,-39.6912"/>
<polygon fill="#000000" stroke="#000000" points="351.5539,-42.9106 359.624,-36.0459 349.0344,-36.3797 351.5539,-42.9106"/>
</g>
<!-- EAID_15DC104F_AA4F_49c6_A44C_550C8712D8F7___EAID_4B9EC7FE_4F5F_4904_844F_92C785543B42&#45;&gt;EAID_4B9EC7FE_4F5F_4904_844F_92C785543B42___EAID_1C18E5F5_399C_43a8_BC4E_1593B863462C -->
<g id="edge16" class="edge">
<title>EAID_15DC104F_AA4F_49c6_A44C_550C8712D8F7___EAID_4B9EC7FE_4F5F_4904_844F_92C785543B42&#45;&gt;EAID_4B9EC7FE_4F5F_4904_844F_92C785543B42___EAID_1C18E5F5_399C_43a8_BC4E_1593B863462C</title>
<path fill="none" stroke="#000000" d="M211,-243.6623C211,-235.7016 211,-226.7633 211,-218.2449"/>
<polygon fill="#000000" stroke="#000000" points="214.5001,-218.1566 211,-208.1566 207.5001,-218.1566 214.5001,-218.1566"/>
</g>
<!-- EAID_15DC104F_AA4F_49c6_A44C_550C8712D8F7___EAID_4B9EC7FE_4F5F_4904_844F_92C785543B42&#45;&gt;EAID_02074B64_AFA1_48ec_BCA5_328787D1DBA8 -->
<g id="edge30" class="edge">
<title>EAID_15DC104F_AA4F_49c6_A44C_550C8712D8F7___EAID_4B9EC7FE_4F5F_4904_844F_92C785543B42&#45;&gt;EAID_02074B64_AFA1_48ec_BCA5_328787D1DBA8</title>
<path fill="none" stroke="#000000" stroke-dasharray="5,2" d="M238.2505,-249.4755C241.167,-247.5672 244.1203,-245.7079 247,-244 277.7721,-225.7496 292.5297,-232.0691 319,-208 374.8392,-157.2262 365.2716,-125.5128 409,-64 413.5724,-57.5679 418.7416,-50.8436 423.7349,-44.5846"/>
<polygon fill="#000000" stroke="#000000" points="426.7838,-46.3816 430.3624,-36.4094 421.3462,-41.9734 426.7838,-46.3816"/>
</g>
<!-- EAID_AE68EB3B_8C9D_4549_93F7_A7DC9E55FF68___EAID_4B9EC7FE_4F5F_4904_844F_92C785543B42 -->
<g id="node12" class="node">
<title>EAID_AE68EB3B_8C9D_4549_93F7_A7DC9E55FF68___EAID_4B9EC7FE_4F5F_4904_844F_92C785543B42</title>
<image xlink:href="img/activity_icon.png" width="30px" height="20px" preserveAspectRatio="xMinYMin meet" x="268" y="-288"/>
<text text-anchor="start" x="267.8413" y="-253.8" font-family="Times,serif" font-weight="bold" font-size="14.00" fill="#000000">e3:c2</text>
</g>
<!-- EAID_AE68EB3B_8C9D_4549_93F7_A7DC9E55FF68___EAID_4B9EC7FE_4F5F_4904_844F_92C785543B42&#45;&gt;EAID_4B9EC7FE_4F5F_4904_844F_92C785543B42___EAID_1C18E5F5_399C_43a8_BC4E_1593B863462C -->
<g id="edge17" class="edge">
<title>EAID_AE68EB3B_8C9D_4549_93F7_A7DC9E55FF68___EAID_4B9EC7FE_4F5F_4904_844F_92C785543B42&#45;&gt;EAID_4B9EC7FE_4F5F_4904_844F_92C785543B42___EAID_1C18E5F5_399C_43a8_BC4E_1593B863462C</title>
<path fill="none" stroke="#000000" d="M261.787,-243.6623C254.5363,-235.0017 246.317,-225.1841 238.6354,-216.009"/>
<polygon fill="#000000" stroke="#000000" points="241.1644,-213.5774 232.0613,-208.1566 235.7971,-218.071 241.1644,-213.5774"/>
</g>
<!-- EAID_AE68EB3B_8C9D_4549_93F7_A7DC9E55FF68___EAID_4B9EC7FE_4F5F_4904_844F_92C785543B42&#45;&gt;EAID_02074B64_AFA1_48ec_BCA5_328787D1DBA8 -->
<g id="edge31" class="edge">
<title>EAID_AE68EB3B_8C9D_4549_93F7_A7DC9E55FF68___EAID_4B9EC7FE_4F5F_4904_844F_92C785543B42&#45;&gt;EAID_02074B64_AFA1_48ec_BCA5_328787D1DBA8</title>
<path fill="none" stroke="#000000" stroke-dasharray="5,2" d="M310.3234,-258.8543C333.075,-249.0885 364.7568,-232.2172 384,-208 389.2002,-201.4557 421.7088,-97.0837 437.4618,-45.8869"/>
<polygon fill="#000000" stroke="#000000" points="440.8737,-46.699 440.4646,-36.112 434.1823,-44.6433 440.8737,-46.699"/>
</g>
<!-- EAID_00961327_B4FD_46a7_9C07_A65F54818211___EAID_1C18E5F5_399C_43a8_BC4E_1593B863462C -->
<g id="node13" class="node">
<title>EAID_00961327_B4FD_46a7_9C07_A65F54818211___EAID_1C18E5F5_399C_43a8_BC4E_1593B863462C</title>
<image xlink:href="img/activity_icon.png" width="30px" height="20px" preserveAspectRatio="xMinYMin meet" x="268" y="-202"/>
<text text-anchor="start" x="267.8413" y="-167.8" font-family="Times,serif" font-weight="bold" font-size="14.00" fill="#000000">c3:e2</text>
</g>
<!-- EAID_00961327_B4FD_46a7_9C07_A65F54818211___EAID_1C18E5F5_399C_43a8_BC4E_1593B863462C&#45;&gt;EAID_1C18E5F5_399C_43a8_BC4E_1593B863462C___EAID_8B3B4CBD_5310_46f7_B837_DFE2F2647998 -->
<g id="edge18" class="edge">
<title>EAID_00961327_B4FD_46a7_9C07_A65F54818211___EAID_1C18E5F5_399C_43a8_BC4E_1593B863462C&#45;&gt;EAID_1C18E5F5_399C_43a8_BC4E_1593B863462C___EAID_8B3B4CBD_5310_46f7_B837_DFE2F2647998</title>
<path fill="none" stroke="#000000" d="M255.8032,-162.8368C239.8048,-150.976 219.4016,-135.8494 202.1875,-123.0873"/>
<polygon fill="#000000" stroke="#000000" points="204.1441,-120.1809 194.0265,-117.0369 199.9751,-125.8041 204.1441,-120.1809"/>
</g>
<!-- EAID_00961327_B4FD_46a7_9C07_A65F54818211___EAID_1C18E5F5_399C_43a8_BC4E_1593B863462C&#45;&gt;EAID_1C18E5F5_399C_43a8_BC4E_1593B863462C___EAID_015FC1C4_BD10_49f6_A3C6_25983C146234 -->
<g id="edge19" class="edge">
<title>EAID_00961327_B4FD_46a7_9C07_A65F54818211___EAID_1C18E5F5_399C_43a8_BC4E_1593B863462C&#45;&gt;EAID_1C18E5F5_399C_43a8_BC4E_1593B863462C___EAID_015FC1C4_BD10_49f6_A3C6_25983C146234</title>
<path fill="none" stroke="#000000" d="M270.0365,-157.6623C265.7846,-149.3516 260.9875,-139.9756 256.4589,-131.1242"/>
<polygon fill="#000000" stroke="#000000" points="259.5415,-129.4649 251.8708,-122.1566 253.3098,-132.6533 259.5415,-129.4649"/>
</g>
<!-- EAID_00961327_B4FD_46a7_9C07_A65F54818211___EAID_1C18E5F5_399C_43a8_BC4E_1593B863462C&#45;&gt;EAID_02074B64_AFA1_48ec_BCA5_328787D1DBA8 -->
<g id="edge32" class="edge">
<title>EAID_00961327_B4FD_46a7_9C07_A65F54818211___EAID_1C18E5F5_399C_43a8_BC4E_1593B863462C&#45;&gt;EAID_02074B64_AFA1_48ec_BCA5_328787D1DBA8</title>
<path fill="none" stroke="#000000" stroke-dasharray="5,2" d="M293.4207,-157.9181C305.3346,-131.7366 326.9999,-90.8286 356,-64 365.8539,-54.8839 377.8554,-47.1084 389.841,-40.6863"/>
<polygon fill="#000000" stroke="#000000" points="391.6443,-43.6958 398.9676,-36.0393 388.4681,-37.4578 391.6443,-43.6958"/>
</g>
<!-- EAID_7DCF7A4C_FB05_48a1_8F24_64481687C395___EAID_015FC1C4_BD10_49f6_A3C6_25983C146234_STL -->
<g id="node14" class="node">
<title>EAID_7DCF7A4C_FB05_48a1_8F24_64481687C395___EAID_015FC1C4_BD10_49f6_A3C6_25983C146234_STL</title>
<image xlink:href="img/stimulus_icon.png" width="30px" height="20px" preserveAspectRatio="xMinYMin meet" x="163" y="-728"/>
<text text-anchor="start" x="139.5034" y="-693.8" font-family="Times,serif" font-weight="bold" font-size="14.00" fill="#000000">stl#Actor1:b2</text>
</g>
<!-- EAID_7DCF7A4C_FB05_48a1_8F24_64481687C395___EAID_015FC1C4_BD10_49f6_A3C6_25983C146234_STL&#45;&gt;EAID_7DCF7A4C_FB05_48a1_8F24_64481687C395___EAID_015FC1C4_BD10_49f6_A3C6_25983C146234 -->
<g id="edge2" class="edge">
<title>EAID_7DCF7A4C_FB05_48a1_8F24_64481687C395___EAID_015FC1C4_BD10_49f6_A3C6_25983C146234_STL&#45;&gt;EAID_7DCF7A4C_FB05_48a1_8F24_64481687C395___EAID_015FC1C4_BD10_49f6_A3C6_25983C146234</title>
<path fill="none" stroke="#000000" d="M178,-683.7771C178,-672.8636 178,-659.9049 178,-648.0774"/>
<polygon fill="#000000" stroke="#000000" points="181.5001,-648.0544 178,-638.0544 174.5001,-648.0544 181.5001,-648.0544"/>
</g>
<!-- EAID_7DCF7A4C_FB05_48a1_8F24_64481687C395___EAID_8B3B4CBD_5310_46f7_B837_DFE2F2647998_STL -->
<g id="node15" class="node">
<title>EAID_7DCF7A4C_FB05_48a1_8F24_64481687C395___EAID_8B3B4CBD_5310_46f7_B837_DFE2F2647998_STL</title>
<image xlink:href="img/stimulus_icon.png" width="30px" height="20px" preserveAspectRatio="xMinYMin meet" x="49" y="-728"/>
<text text-anchor="start" x="25.5034" y="-693.8" font-family="Times,serif" font-weight="bold" font-size="14.00" fill="#000000">stl#Actor1:b1</text>
</g>
<!-- EAID_7DCF7A4C_FB05_48a1_8F24_64481687C395___EAID_8B3B4CBD_5310_46f7_B837_DFE2F2647998_STL&#45;&gt;EAID_7DCF7A4C_FB05_48a1_8F24_64481687C395___EAID_8B3B4CBD_5310_46f7_B837_DFE2F2647998 -->
<g id="edge4" class="edge">
<title>EAID_7DCF7A4C_FB05_48a1_8F24_64481687C395___EAID_8B3B4CBD_5310_46f7_B837_DFE2F2647998_STL&#45;&gt;EAID_7DCF7A4C_FB05_48a1_8F24_64481687C395___EAID_8B3B4CBD_5310_46f7_B837_DFE2F2647998</title>
<path fill="none" stroke="#000000" d="M75.6116,-683.7835C87.7835,-658.4987 108.2739,-618.9775 131,-588 138.2259,-578.1505 146.9171,-568.2293 155.3462,-559.3333"/>
<polygon fill="#000000" stroke="#000000" points="157.8838,-561.7441 162.327,-552.1259 152.8556,-556.874 157.8838,-561.7441"/>
</g>
<!-- EAID_C75AC92B_2923_4afb_8E22_A991C5F1A9D7___EAID_015FC1C4_BD10_49f6_A3C6_25983C146234_STL -->
<g id="node16" class="node">
<title>EAID_C75AC92B_2923_4afb_8E22_A991C5F1A9D7___EAID_015FC1C4_BD10_49f6_A3C6_25983C146234_STL</title>
<image xlink:href="img/stimulus_icon.png" width="30px" height="20px" preserveAspectRatio="xMinYMin meet" x="283" y="-728"/>
<text text-anchor="start" x="259.5034" y="-693.8" font-family="Times,serif" font-weight="bold" font-size="14.00" fill="#000000">stl#Actor2:b2</text>
</g>
<!-- EAID_C75AC92B_2923_4afb_8E22_A991C5F1A9D7___EAID_015FC1C4_BD10_49f6_A3C6_25983C146234_STL&#45;&gt;EAID_C75AC92B_2923_4afb_8E22_A991C5F1A9D7___EAID_015FC1C4_BD10_49f6_A3C6_25983C146234 -->
<g id="edge6" class="edge">
<title>EAID_C75AC92B_2923_4afb_8E22_A991C5F1A9D7___EAID_015FC1C4_BD10_49f6_A3C6_25983C146234_STL&#45;&gt;EAID_C75AC92B_2923_4afb_8E22_A991C5F1A9D7___EAID_015FC1C4_BD10_49f6_A3C6_25983C146234</title>
<path fill="none" stroke="#000000" d="M291.1688,-683.7771C288.1832,-672.7533 284.6325,-659.6429 281.4031,-647.7193"/>
<polygon fill="#000000" stroke="#000000" points="284.7781,-646.7917 278.7856,-638.0544 278.0215,-648.6217 284.7781,-646.7917"/>
</g>
</g>
</svg>
