<?xml version="1.0" encoding="UTF-8" standalone="no"?>
<!DOCTYPE svg PUBLIC "-//W3C//DTD SVG 1.1//EN"
 "http://www.w3.org/Graphics/SVG/1.1/DTD/svg11.dtd">
<!-- Generated by graphviz version 2.40.1 (20161225.0304)
 -->
<!-- Title: g Pages: 1 -->
<svg width="1784pt" height="564pt"
 viewBox="0.00 0.00 1784.45 564.00" xmlns="http://www.w3.org/2000/svg" xmlns:xlink="http://www.w3.org/1999/xlink">
<g id="graph0" class="graph" transform="scale(1 1) rotate(0) translate(4 560)">
<title>g</title>
<polygon fill="#ffffff" stroke="transparent" points="-4,4 -4,-560 1780.45,-560 1780.45,4 -4,4"/>
<g id="clust1" class="cluster">
<title>cluster0</title>
<polygon fill="none" stroke="#000000" stroke-width="2" points="8,-64 8,-452 1070,-452 1070,-64 8,-64"/>
<text text-anchor="start" x="518.3862" y="-437.8" font-family="Times,serif" font-weight="bold" font-size="14.00" fill="#000000">System</text>
</g>
<g id="clust2" class="cluster">
<title>cluster1</title>
<polygon fill="none" stroke="#000000" stroke-width="2" points="541,-460 541,-548 1041,-548 1041,-460 541,-460"/>
<text text-anchor="start" x="782.8311" y="-533.8" font-family="Times,serif" font-weight="bold" font-size="14.00" fill="#000000">FT</text>
</g>
<!-- EAID_7E0D372B_BBE9_4c22_B762_17A776AC0591___EAID_9FF5AB6B_58AE_4920_952C_B6FD91B908D1 -->
<g id="node1" class="node">
<title>EAID_7E0D372B_BBE9_4c22_B762_17A776AC0591___EAID_9FF5AB6B_58AE_4920_952C_B6FD91B908D1</title>
<image xlink:href="img/activity_icon.png" width="30px" height="20px" preserveAspectRatio="xMinYMin meet" x="608.5" y="-416"/>
<text text-anchor="start" x="569.9883" y="-381.8" font-family="Times,serif" font-weight="bold" font-size="14.00" fill="#000000">FT:Coupon Invalid</text>
</g>
<!-- EAID_9FF5AB6B_58AE_4920_952C_B6FD91B908D1___EAID_5735D651_ECE6_48bd_877D_EE793608735B -->
<g id="node6" class="node">
<title>EAID_9FF5AB6B_58AE_4920_952C_B6FD91B908D1___EAID_5735D651_ECE6_48bd_877D_EE793608735B</title>
<image xlink:href="img/activity_icon.png" width="30px" height="20px" preserveAspectRatio="xMinYMin meet" x="106" y="-323"/>
<text text-anchor="start" x="25.854" y="-288.8" font-family="Times,serif" font-weight="bold" font-size="14.00" fill="#000000">Coupon Invalid:Coupon Validator</text>
</g>
<!-- EAID_7E0D372B_BBE9_4c22_B762_17A776AC0591___EAID_9FF5AB6B_58AE_4920_952C_B6FD91B908D1&#45;&gt;EAID_9FF5AB6B_58AE_4920_952C_B6FD91B908D1___EAID_5735D651_ECE6_48bd_877D_EE793608735B -->
<g id="edge1" class="edge">
<title>EAID_7E0D372B_BBE9_4c22_B762_17A776AC0591___EAID_9FF5AB6B_58AE_4920_952C_B6FD91B908D1&#45;&gt;EAID_9FF5AB6B_58AE_4920_952C_B6FD91B908D1___EAID_5735D651_ECE6_48bd_877D_EE793608735B</title>
<path fill="none" stroke="#000000" d="M559.4019,-389.3384C482.1941,-379.5008 348.2565,-360.7086 235,-336 228.8053,-334.6485 222.4484,-333.1582 216.0584,-331.5821"/>
<polygon fill="#000000" stroke="#000000" points="216.5611,-328.0991 206.0083,-329.0423 214.846,-334.8858 216.5611,-328.0991"/>
</g>
<!-- EAID_CEA5660E_BD2E_44b6_9FF1_650F138632BD -->
<g id="node17" class="node">
<title>EAID_CEA5660E_BD2E_44b6_9FF1_650F138632BD</title>
<text text-anchor="middle" x="1552" y="-13.8" font-family="Times,serif" font-size="14.00" fill="#000000">EAID_CEA5660E_BD2E_44b6_9FF1_650F138632BD</text>
</g>
<!-- EAID_7E0D372B_BBE9_4c22_B762_17A776AC0591___EAID_9FF5AB6B_58AE_4920_952C_B6FD91B908D1&#45;&gt;EAID_CEA5660E_BD2E_44b6_9FF1_650F138632BD -->
<g id="edge15" class="edge">
<title>EAID_7E0D372B_BBE9_4c22_B762_17A776AC0591___EAID_9FF5AB6B_58AE_4920_952C_B6FD91B908D1&#45;&gt;EAID_CEA5660E_BD2E_44b6_9FF1_650F138632BD</title>
<path fill="none" stroke="#000000" stroke-dasharray="5,2" d="M686.7263,-378.4153C696.4735,-375.9958 706.4628,-373.7536 716,-372 918.6103,-334.7466 1500.7046,-393.9135 1633,-236 1644.8748,-221.8257 1647.8488,-92.6897 1631,-64 1625.7011,-54.9772 1617.8918,-47.5509 1609.2166,-41.4971"/>
<polygon fill="#000000" stroke="#000000" points="1611.0106,-38.4906 1600.6876,-36.1063 1607.2706,-44.4077 1611.0106,-38.4906"/>
</g>
<!-- EAID_7E0D372B_BBE9_4c22_B762_17A776AC0591___EAID_DBF53052_98E3_4331_951F_8641FCFDFE88 -->
<g id="node2" class="node">
<title>EAID_7E0D372B_BBE9_4c22_B762_17A776AC0591___EAID_DBF53052_98E3_4331_951F_8641FCFDFE88</title>
<image xlink:href="img/activity_icon.png" width="30px" height="20px" preserveAspectRatio="xMinYMin meet" x="783" y="-416"/>
<text text-anchor="start" x="734.7744" y="-381.8" font-family="Times,serif" font-weight="bold" font-size="14.00" fill="#000000">FT:Coupon Redeemed</text>
</g>
<!-- EAID_DBF53052_98E3_4331_951F_8641FCFDFE88___EAID_5735D651_ECE6_48bd_877D_EE793608735B -->
<g id="node9" class="node">
<title>EAID_DBF53052_98E3_4331_951F_8641FCFDFE88___EAID_5735D651_ECE6_48bd_877D_EE793608735B</title>
<image xlink:href="img/activity_icon.png" width="30px" height="20px" preserveAspectRatio="xMinYMin meet" x="344.5" y="-323"/>
<text text-anchor="start" x="254.6401" y="-288.8" font-family="Times,serif" font-weight="bold" font-size="14.00" fill="#000000">Coupon Redeemed:Coupon Validator</text>
</g>
<!-- EAID_7E0D372B_BBE9_4c22_B762_17A776AC0591___EAID_DBF53052_98E3_4331_951F_8641FCFDFE88&#45;&gt;EAID_DBF53052_98E3_4331_951F_8641FCFDFE88___EAID_5735D651_ECE6_48bd_877D_EE793608735B -->
<g id="edge3" class="edge">
<title>EAID_7E0D372B_BBE9_4c22_B762_17A776AC0591___EAID_DBF53052_98E3_4331_951F_8641FCFDFE88&#45;&gt;EAID_DBF53052_98E3_4331_951F_8641FCFDFE88___EAID_5735D651_ECE6_48bd_877D_EE793608735B</title>
<path fill="none" stroke="#000000" d="M724.9939,-378.6126C714.9417,-376.2763 704.7323,-374.0049 695,-372 601.3945,-352.717 576.4639,-355.9583 483,-336 476.3531,-334.5806 469.5255,-333.0439 462.6551,-331.4382"/>
<polygon fill="#000000" stroke="#000000" points="463.1129,-327.9495 452.5745,-329.0417 461.4939,-334.7597 463.1129,-327.9495"/>
</g>
<!-- EAID_7E0D372B_BBE9_4c22_B762_17A776AC0591___EAID_DBF53052_98E3_4331_951F_8641FCFDFE88&#45;&gt;EAID_CEA5660E_BD2E_44b6_9FF1_650F138632BD -->
<g id="edge16" class="edge">
<title>EAID_7E0D372B_BBE9_4c22_B762_17A776AC0591___EAID_DBF53052_98E3_4331_951F_8641FCFDFE88&#45;&gt;EAID_CEA5660E_BD2E_44b6_9FF1_650F138632BD</title>
<path fill="none" stroke="#000000" stroke-dasharray="5,2" d="M871.2078,-377.2537C880.8361,-375.1885 890.6162,-373.3534 900,-372 942.9352,-365.8075 1650.0415,-367.3731 1680,-336 1721.7438,-292.2852 1714.77,-113.4426 1680,-64 1673.6696,-54.9982 1654.981,-46.4536 1633.7724,-39.2264"/>
<polygon fill="#000000" stroke="#000000" points="1634.8157,-35.8853 1624.2232,-36.1073 1632.6422,-42.5393 1634.8157,-35.8853"/>
</g>
<!-- EAID_7E0D372B_BBE9_4c22_B762_17A776AC0591___EAID_EF1BBFD3_6DE9_426f_AD6D_825367604AF7 -->
<g id="node3" class="node">
<title>EAID_7E0D372B_BBE9_4c22_B762_17A776AC0591___EAID_EF1BBFD3_6DE9_426f_AD6D_825367604AF7</title>
<image xlink:href="img/activity_icon.png" width="30px" height="20px" preserveAspectRatio="xMinYMin meet" x="951" y="-416"/>
<text text-anchor="start" x="918.709" y="-381.8" font-family="Times,serif" font-weight="bold" font-size="14.00" fill="#000000">FT:Coupon Page</text>
</g>
<!-- EAID_EF1BBFD3_6DE9_426f_AD6D_825367604AF7___EAID_6F59D879_2534_4a49_83CC_060EC27AD518 -->
<g id="node7" class="node">
<title>EAID_EF1BBFD3_6DE9_426f_AD6D_825367604AF7___EAID_6F59D879_2534_4a49_83CC_060EC27AD518</title>
<image xlink:href="img/activity_icon.png" width="30px" height="20px" preserveAspectRatio="xMinYMin meet" x="562" y="-330"/>
<text text-anchor="start" x="501.5654" y="-295.8" font-family="Times,serif" font-weight="bold" font-size="14.00" fill="#000000">Coupon Page:Save coupon</text>
<text text-anchor="start" x="554.6533" y="-281.8" font-family="Times,serif" font-weight="bold" font-size="14.00" fill="#000000">for later</text>
</g>
<!-- EAID_7E0D372B_BBE9_4c22_B762_17A776AC0591___EAID_EF1BBFD3_6DE9_426f_AD6D_825367604AF7&#45;&gt;EAID_EF1BBFD3_6DE9_426f_AD6D_825367604AF7___EAID_6F59D879_2534_4a49_83CC_060EC27AD518 -->
<g id="edge5" class="edge">
<title>EAID_7E0D372B_BBE9_4c22_B762_17A776AC0591___EAID_EF1BBFD3_6DE9_426f_AD6D_825367604AF7&#45;&gt;EAID_EF1BBFD3_6DE9_426f_AD6D_825367604AF7___EAID_6F59D879_2534_4a49_83CC_060EC27AD518</title>
<path fill="none" stroke="#000000" d="M908.8729,-379.4224C899.2812,-376.7509 889.3934,-374.1671 880,-372 791.2052,-351.5146 764.1288,-358.7315 671.8709,-336.0756"/>
<polygon fill="#000000" stroke="#000000" points="672.6807,-332.6704 662.1297,-333.6333 670.9783,-339.4602 672.6807,-332.6704"/>
</g>
<!-- EAID_EF1BBFD3_6DE9_426f_AD6D_825367604AF7___EAID_59DF845F_41A8_40c7_8412_DCEEF12949D5 -->
<g id="node8" class="node">
<title>EAID_EF1BBFD3_6DE9_426f_AD6D_825367604AF7___EAID_59DF845F_41A8_40c7_8412_DCEEF12949D5</title>
<image xlink:href="img/activity_icon.png" width="30px" height="20px" preserveAspectRatio="xMinYMin meet" x="951" y="-323"/>
<text text-anchor="start" x="879.6758" y="-288.8" font-family="Times,serif" font-weight="bold" font-size="14.00" fill="#000000">Coupon Page:Redeem Coupon</text>
</g>
<!-- EAID_7E0D372B_BBE9_4c22_B762_17A776AC0591___EAID_EF1BBFD3_6DE9_426f_AD6D_825367604AF7&#45;&gt;EAID_EF1BBFD3_6DE9_426f_AD6D_825367604AF7___EAID_59DF845F_41A8_40c7_8412_DCEEF12949D5 -->
<g id="edge6" class="edge">
<title>EAID_7E0D372B_BBE9_4c22_B762_17A776AC0591___EAID_EF1BBFD3_6DE9_426f_AD6D_825367604AF7&#45;&gt;EAID_EF1BBFD3_6DE9_426f_AD6D_825367604AF7___EAID_59DF845F_41A8_40c7_8412_DCEEF12949D5</title>
<path fill="none" stroke="#000000" d="M966,-371.5873C966,-361.5615 966,-349.8763 966,-339.0694"/>
<polygon fill="#000000" stroke="#000000" points="969.5001,-339.0599 966,-329.0599 962.5001,-339.06 969.5001,-339.0599"/>
</g>
<!-- EAID_7E0D372B_BBE9_4c22_B762_17A776AC0591___EAID_EF1BBFD3_6DE9_426f_AD6D_825367604AF7&#45;&gt;EAID_CEA5660E_BD2E_44b6_9FF1_650F138632BD -->
<g id="edge17" class="edge">
<title>EAID_7E0D372B_BBE9_4c22_B762_17A776AC0591___EAID_EF1BBFD3_6DE9_426f_AD6D_825367604AF7&#45;&gt;EAID_CEA5660E_BD2E_44b6_9FF1_650F138632BD</title>
<path fill="none" stroke="#000000" stroke-dasharray="5,2" d="M1023.2261,-394.4609C1194.7861,-386.5752 1694.4827,-361.5022 1718,-336 1799.9529,-247.1302 1791.183,-160.2205 1718,-64 1710.3284,-53.9135 1689.5431,-45.4639 1665.1676,-38.6728"/>
<polygon fill="#000000" stroke="#000000" points="1665.856,-35.2345 1655.2931,-36.0561 1664.0629,-42.0009 1665.856,-35.2345"/>
</g>
<!-- EAID_5735D651_ECE6_48bd_877D_EE793608735B___EAID_82A4E80C_A965_4e3b_B921_A6366CBD73D4 -->
<g id="node4" class="node">
<title>EAID_5735D651_ECE6_48bd_877D_EE793608735B___EAID_82A4E80C_A965_4e3b_B921_A6366CBD73D4</title>
<image xlink:href="img/activity_icon.png" width="30px" height="20px" preserveAspectRatio="xMinYMin meet" x="328.5" y="-223"/>
<text text-anchor="start" x="242.5298" y="-188.8" font-family="Times,serif" font-weight="bold" font-size="14.00" fill="#000000">Coupon Validator:Coupon Database</text>
</g>
<!-- EAID_5735D651_ECE6_48bd_877D_EE793608735B___EAID_82A4E80C_A965_4e3b_B921_A6366CBD73D4&#45;&gt;EAID_CEA5660E_BD2E_44b6_9FF1_650F138632BD -->
<g id="edge18" class="edge">
<title>EAID_5735D651_ECE6_48bd_877D_EE793608735B___EAID_82A4E80C_A965_4e3b_B921_A6366CBD73D4&#45;&gt;EAID_CEA5660E_BD2E_44b6_9FF1_650F138632BD</title>
<path fill="none" stroke="#000000" stroke-dasharray="5,2" d="M429.3848,-178.9723C440.3027,-176.3412 451.3697,-173.9284 462,-172 625.8735,-142.2723 671.6654,-168.5589 835,-136 942.1289,-114.6451 962.8597,-85.2977 1070,-64 1170.2297,-44.0761 1283.96,-32.7016 1375.7664,-26.2497"/>
<polygon fill="#000000" stroke="#000000" points="1376.2612,-29.724 1385.9969,-25.5447 1375.7799,-22.7406 1376.2612,-29.724"/>
</g>
<!-- EAID_59DF845F_41A8_40c7_8412_DCEEF12949D5___EAID_82A4E80C_A965_4e3b_B921_A6366CBD73D4 -->
<g id="node5" class="node">
<title>EAID_59DF845F_41A8_40c7_8412_DCEEF12949D5___EAID_82A4E80C_A965_4e3b_B921_A6366CBD73D4</title>
<image xlink:href="img/activity_icon.png" width="30px" height="20px" preserveAspectRatio="xMinYMin meet" x="939" y="-223"/>
<text text-anchor="start" x="855.6309" y="-188.8" font-family="Times,serif" font-weight="bold" font-size="14.00" fill="#000000">Redeem Coupon:Coupon Database</text>
</g>
<!-- EAID_59DF845F_41A8_40c7_8412_DCEEF12949D5___EAID_82A4E80C_A965_4e3b_B921_A6366CBD73D4&#45;&gt;EAID_CEA5660E_BD2E_44b6_9FF1_650F138632BD -->
<g id="edge19" class="edge">
<title>EAID_59DF845F_41A8_40c7_8412_DCEEF12949D5___EAID_82A4E80C_A965_4e3b_B921_A6366CBD73D4&#45;&gt;EAID_CEA5660E_BD2E_44b6_9FF1_650F138632BD</title>
<path fill="none" stroke="#000000" stroke-dasharray="5,2" d="M1062.1872,-198.8277C1180.9145,-191.3231 1362.2194,-173.9204 1419,-136 1449.9957,-115.2998 1434.7907,-89.4733 1462,-64 1471.6975,-54.9212 1483.5299,-47.1893 1495.3865,-40.8016"/>
<polygon fill="#000000" stroke="#000000" points="1497.1144,-43.8491 1504.4231,-36.1788 1493.9263,-37.6172 1497.1144,-43.8491"/>
</g>
<!-- EAID_9FF5AB6B_58AE_4920_952C_B6FD91B908D1___EAID_5735D651_ECE6_48bd_877D_EE793608735B&#45;&gt;EAID_5735D651_ECE6_48bd_877D_EE793608735B___EAID_82A4E80C_A965_4e3b_B921_A6366CBD73D4 -->
<g id="edge8" class="edge">
<title>EAID_9FF5AB6B_58AE_4920_952C_B6FD91B908D1___EAID_5735D651_ECE6_48bd_877D_EE793608735B&#45;&gt;EAID_5735D651_ECE6_48bd_877D_EE793608735B___EAID_82A4E80C_A965_4e3b_B921_A6366CBD73D4</title>
<path fill="none" stroke="#000000" d="M176.7334,-278.8949C207.478,-265.046 245.817,-247.7761 277.9293,-233.3111"/>
<polygon fill="#000000" stroke="#000000" points="279.5635,-236.4138 287.2436,-229.1155 276.6885,-230.0314 279.5635,-236.4138"/>
</g>
<!-- EAID_9FF5AB6B_58AE_4920_952C_B6FD91B908D1___EAID_5735D651_ECE6_48bd_877D_EE793608735B&#45;&gt;EAID_CEA5660E_BD2E_44b6_9FF1_650F138632BD -->
<g id="edge20" class="edge">
<title>EAID_9FF5AB6B_58AE_4920_952C_B6FD91B908D1___EAID_5735D651_ECE6_48bd_877D_EE793608735B&#45;&gt;EAID_CEA5660E_BD2E_44b6_9FF1_650F138632BD</title>
<path fill="none" stroke="#000000" stroke-dasharray="5,2" d="M201.4479,-278.9403C212.6287,-276.1862 224.0383,-273.7504 235,-272 602.2471,-213.3564 703.2326,-291.2874 1071,-236 1244.9738,-209.8461 1305.5599,-230.4269 1454,-136 1490.3367,-112.8852 1519.8727,-71.8849 1536.6996,-44.8204"/>
<polygon fill="#000000" stroke="#000000" points="1539.7207,-46.5884 1541.9104,-36.2222 1533.7343,-42.9603 1539.7207,-46.5884"/>
</g>
<!-- EAID_6F59D879_2534_4a49_83CC_060EC27AD518___EAID_9B808F6C_94A4_4b0f_AD6C_C38026E0606C -->
<g id="node13" class="node">
<title>EAID_6F59D879_2534_4a49_83CC_060EC27AD518___EAID_9B808F6C_94A4_4b0f_AD6C_C38026E0606C</title>
<image xlink:href="img/activity_icon.png" width="30px" height="20px" preserveAspectRatio="xMinYMin meet" x="527.5" y="-230"/>
<text text-anchor="start" x="496.624" y="-195.8" font-family="Times,serif" font-weight="bold" font-size="14.00" fill="#000000">Save coupon for</text>
<text text-anchor="start" x="481.9507" y="-181.8" font-family="Times,serif" font-weight="bold" font-size="14.00" fill="#000000">later:Partner&#39;s Mobile</text>
</g>
<!-- EAID_EF1BBFD3_6DE9_426f_AD6D_825367604AF7___EAID_6F59D879_2534_4a49_83CC_060EC27AD518&#45;&gt;EAID_6F59D879_2534_4a49_83CC_060EC27AD518___EAID_9B808F6C_94A4_4b0f_AD6C_C38026E0606C -->
<g id="edge9" class="edge">
<title>EAID_EF1BBFD3_6DE9_426f_AD6D_825367604AF7___EAID_6F59D879_2534_4a49_83CC_060EC27AD518&#45;&gt;EAID_6F59D879_2534_4a49_83CC_060EC27AD518___EAID_9B808F6C_94A4_4b0f_AD6C_C38026E0606C</title>
<path fill="none" stroke="#000000" d="M565.7331,-271.8089C562.8293,-263.5122 559.662,-254.4628 556.6148,-245.7565"/>
<polygon fill="#000000" stroke="#000000" points="559.8528,-244.4131 553.2458,-236.1308 553.2458,-246.7256 559.8528,-244.4131"/>
</g>
<!-- EAID_EF1BBFD3_6DE9_426f_AD6D_825367604AF7___EAID_6F59D879_2534_4a49_83CC_060EC27AD518&#45;&gt;EAID_CEA5660E_BD2E_44b6_9FF1_650F138632BD -->
<g id="edge21" class="edge">
<title>EAID_EF1BBFD3_6DE9_426f_AD6D_825367604AF7___EAID_6F59D879_2534_4a49_83CC_060EC27AD518&#45;&gt;EAID_CEA5660E_BD2E_44b6_9FF1_650F138632BD</title>
<path fill="none" stroke="#000000" stroke-dasharray="5,2" d="M662.0209,-273.8735C665.0355,-273.1838 668.0347,-272.5551 671,-272 717.8395,-263.232 1493.1836,-268.5367 1528,-236 1580.114,-187.2983 1568.8091,-93.1382 1558.9948,-46.1283"/>
<polygon fill="#000000" stroke="#000000" points="1562.4003,-45.3185 1556.8216,-36.3114 1555.5658,-46.8315 1562.4003,-45.3185"/>
</g>
<!-- EAID_EF1BBFD3_6DE9_426f_AD6D_825367604AF7___EAID_59DF845F_41A8_40c7_8412_DCEEF12949D5&#45;&gt;EAID_59DF845F_41A8_40c7_8412_DCEEF12949D5___EAID_82A4E80C_A965_4e3b_B921_A6366CBD73D4 -->
<g id="edge10" class="edge">
<title>EAID_EF1BBFD3_6DE9_426f_AD6D_825367604AF7___EAID_59DF845F_41A8_40c7_8412_DCEEF12949D5&#45;&gt;EAID_59DF845F_41A8_40c7_8412_DCEEF12949D5___EAID_82A4E80C_A965_4e3b_B921_A6366CBD73D4</title>
<path fill="none" stroke="#000000" d="M962.9719,-278.7658C961.5365,-266.8042 959.7975,-252.3127 958.2341,-239.2845"/>
<polygon fill="#000000" stroke="#000000" points="961.6937,-238.7379 957.0271,-229.2261 954.7436,-239.572 961.6937,-238.7379"/>
</g>
<!-- EAID_EF1BBFD3_6DE9_426f_AD6D_825367604AF7___EAID_59DF845F_41A8_40c7_8412_DCEEF12949D5&#45;&gt;EAID_CEA5660E_BD2E_44b6_9FF1_650F138632BD -->
<g id="edge22" class="edge">
<title>EAID_EF1BBFD3_6DE9_426f_AD6D_825367604AF7___EAID_59DF845F_41A8_40c7_8412_DCEEF12949D5&#45;&gt;EAID_CEA5660E_BD2E_44b6_9FF1_650F138632BD</title>
<path fill="none" stroke="#000000" stroke-dasharray="5,2" d="M1062.2931,-300.6977C1231.6782,-293.8901 1568.4849,-275.5016 1604,-236 1655.1098,-179.1533 1635.3993,-133.6982 1604,-64 1600.4416,-56.1013 1594.7823,-49.0119 1588.4824,-42.8999"/>
<polygon fill="#000000" stroke="#000000" points="1590.6917,-40.1816 1580.8799,-36.1841 1586.0573,-45.4278 1590.6917,-40.1816"/>
</g>
<!-- EAID_DBF53052_98E3_4331_951F_8641FCFDFE88___EAID_5735D651_ECE6_48bd_877D_EE793608735B&#45;&gt;EAID_5735D651_ECE6_48bd_877D_EE793608735B___EAID_82A4E80C_A965_4e3b_B921_A6366CBD73D4 -->
<g id="edge11" class="edge">
<title>EAID_DBF53052_98E3_4331_951F_8641FCFDFE88___EAID_5735D651_ECE6_48bd_877D_EE793608735B&#45;&gt;EAID_5735D651_ECE6_48bd_877D_EE793608735B___EAID_82A4E80C_A965_4e3b_B921_A6366CBD73D4</title>
<path fill="none" stroke="#000000" d="M354.9625,-278.7658C353.0487,-266.8042 350.73,-252.3127 348.6455,-239.2845"/>
<polygon fill="#000000" stroke="#000000" points="352.0722,-238.5476 347.0362,-229.2261 345.1601,-239.6536 352.0722,-238.5476"/>
</g>
<!-- EAID_DBF53052_98E3_4331_951F_8641FCFDFE88___EAID_5735D651_ECE6_48bd_877D_EE793608735B&#45;&gt;EAID_CEA5660E_BD2E_44b6_9FF1_650F138632BD -->
<g id="edge23" class="edge">
<title>EAID_DBF53052_98E3_4331_951F_8641FCFDFE88___EAID_5735D651_ECE6_48bd_877D_EE793608735B&#45;&gt;EAID_CEA5660E_BD2E_44b6_9FF1_650F138632BD</title>
<path fill="none" stroke="#000000" stroke-dasharray="5,2" d="M446.2455,-278.9685C458.503,-276.1903 471.0086,-273.7406 483,-272 538.3996,-263.9587 1445.9386,-270.5308 1490,-236 1519.9884,-212.4981 1540.0857,-99.8013 1548.0956,-46.3066"/>
<polygon fill="#000000" stroke="#000000" points="1551.5982,-46.5422 1549.5782,-36.1417 1544.6715,-45.5318 1551.5982,-46.5422"/>
</g>
<!-- EAID_D7FFF255_6E17_40d0_8C87_789C44463176___EAID_9B808F6C_94A4_4b0f_AD6C_C38026E0606C -->
<g id="node10" class="node">
<title>EAID_D7FFF255_6E17_40d0_8C87_789C44463176___EAID_9B808F6C_94A4_4b0f_AD6C_C38026E0606C</title>
<image xlink:href="img/activity_icon.png" width="30px" height="20px" preserveAspectRatio="xMinYMin meet" x="714.5" y="-230"/>
<text text-anchor="start" x="640.9883" y="-195.8" font-family="Times,serif" font-weight="bold" font-size="14.00" fill="#000000">Generate Test Coupon:Partner&#39;s</text>
<text text-anchor="start" x="709.2793" y="-181.8" font-family="Times,serif" font-weight="bold" font-size="14.00" fill="#000000">Mobile</text>
</g>
<!-- EAID_9B808F6C_94A4_4b0f_AD6C_C38026E0606C___EAID_19612C07_E7D1_4113_AC69_41804AF20A6D -->
<g id="node12" class="node">
<title>EAID_9B808F6C_94A4_4b0f_AD6C_C38026E0606C___EAID_19612C07_E7D1_4113_AC69_41804AF20A6D</title>
<image xlink:href="img/activity_icon.png" width="30px" height="20px" preserveAspectRatio="xMinYMin meet" x="714" y="-130"/>
<text text-anchor="start" x="641.8042" y="-95.8" font-family="Times,serif" font-weight="bold" font-size="14.00" fill="#000000">Partner&#39;s Mobile:Open Coupon</text>
<text text-anchor="start" x="715.3931" y="-81.8" font-family="Times,serif" font-weight="bold" font-size="14.00" fill="#000000">Page</text>
</g>
<!-- EAID_D7FFF255_6E17_40d0_8C87_789C44463176___EAID_9B808F6C_94A4_4b0f_AD6C_C38026E0606C&#45;&gt;EAID_9B808F6C_94A4_4b0f_AD6C_C38026E0606C___EAID_19612C07_E7D1_4113_AC69_41804AF20A6D -->
<g id="edge12" class="edge">
<title>EAID_D7FFF255_6E17_40d0_8C87_789C44463176___EAID_9B808F6C_94A4_4b0f_AD6C_C38026E0606C&#45;&gt;EAID_9B808F6C_94A4_4b0f_AD6C_C38026E0606C___EAID_19612C07_E7D1_4113_AC69_41804AF20A6D</title>
<path fill="none" stroke="#000000" d="M729,-171.8089C729,-163.6906 729,-154.8517 729,-146.3186"/>
<polygon fill="#000000" stroke="#000000" points="732.5001,-146.1307 729,-136.1308 725.5001,-146.1308 732.5001,-146.1307"/>
</g>
<!-- EAID_93A0D65A_E9F5_4e29_9293_3F4A442BBD74 -->
<g id="node18" class="node">
<title>EAID_93A0D65A_E9F5_4e29_9293_3F4A442BBD74</title>
<text text-anchor="middle" x="1244" y="-99.8" font-family="Times,serif" font-size="14.00" fill="#000000">EAID_93A0D65A_E9F5_4e29_9293_3F4A442BBD74</text>
</g>
<!-- EAID_D7FFF255_6E17_40d0_8C87_789C44463176___EAID_9B808F6C_94A4_4b0f_AD6C_C38026E0606C&#45;&gt;EAID_93A0D65A_E9F5_4e29_9293_3F4A442BBD74 -->
<g id="edge24" class="edge">
<title>EAID_D7FFF255_6E17_40d0_8C87_789C44463176___EAID_9B808F6C_94A4_4b0f_AD6C_C38026E0606C&#45;&gt;EAID_93A0D65A_E9F5_4e29_9293_3F4A442BBD74</title>
<path fill="none" stroke="#000000" stroke-dasharray="5,2" d="M827.7348,-174.155C830.852,-173.4019 833.9461,-172.681 837,-172 940.9876,-148.8118 968.9656,-153.8572 1074,-136 1095.8239,-132.2897 1119.1741,-128.063 1141.3623,-123.925"/>
<polygon fill="#000000" stroke="#000000" points="1142.281,-127.3138 1151.4654,-122.0321 1140.9919,-120.4335 1142.281,-127.3138"/>
</g>
<!-- EAID_93A65771_D73B_43d8_8C6E_88AAB58BB05C___EAID_D7FFF255_6E17_40d0_8C87_789C44463176 -->
<g id="node11" class="node">
<title>EAID_93A65771_D73B_43d8_8C6E_88AAB58BB05C___EAID_D7FFF255_6E17_40d0_8C87_789C44463176</title>
<image xlink:href="img/activity_icon.png" width="30px" height="20px" preserveAspectRatio="xMinYMin meet" x="751.5" y="-330"/>
<text text-anchor="start" x="690.6245" y="-295.8" font-family="Times,serif" font-weight="bold" font-size="14.00" fill="#000000">Test Coupon:Generate Test</text>
<text text-anchor="start" x="744.3311" y="-281.8" font-family="Times,serif" font-weight="bold" font-size="14.00" fill="#000000">Coupon</text>
</g>
<!-- EAID_93A65771_D73B_43d8_8C6E_88AAB58BB05C___EAID_D7FFF255_6E17_40d0_8C87_789C44463176&#45;&gt;EAID_D7FFF255_6E17_40d0_8C87_789C44463176___EAID_9B808F6C_94A4_4b0f_AD6C_C38026E0606C -->
<g id="edge13" class="edge">
<title>EAID_93A65771_D73B_43d8_8C6E_88AAB58BB05C___EAID_D7FFF255_6E17_40d0_8C87_789C44463176&#45;&gt;EAID_D7FFF255_6E17_40d0_8C87_789C44463176___EAID_9B808F6C_94A4_4b0f_AD6C_C38026E0606C</title>
<path fill="none" stroke="#000000" d="M754.0893,-271.8089C751.0195,-263.5122 747.6713,-254.4628 744.4499,-245.7565"/>
<polygon fill="#000000" stroke="#000000" points="747.6411,-244.2948 740.8884,-236.1308 741.076,-246.7239 747.6411,-244.2948"/>
</g>
<!-- EAID_93A65771_D73B_43d8_8C6E_88AAB58BB05C___EAID_D7FFF255_6E17_40d0_8C87_789C44463176&#45;&gt;EAID_CEA5660E_BD2E_44b6_9FF1_650F138632BD -->
<g id="edge25" class="edge">
<title>EAID_93A65771_D73B_43d8_8C6E_88AAB58BB05C___EAID_D7FFF255_6E17_40d0_8C87_789C44463176&#45;&gt;EAID_CEA5660E_BD2E_44b6_9FF1_650F138632BD</title>
<path fill="none" stroke="#000000" stroke-dasharray="5,2" d="M851.6773,-273.9702C854.8082,-273.2466 857.9225,-272.5854 861,-272 938.0539,-257.3438 1511.9705,-292.8588 1566,-236 1614.9205,-184.5177 1584.781,-91.7075 1565.0678,-45.5772"/>
<polygon fill="#000000" stroke="#000000" points="1568.1734,-43.9456 1560.9322,-36.2115 1561.7699,-46.7732 1568.1734,-43.9456"/>
</g>
<!-- EAID_9B808F6C_94A4_4b0f_AD6C_C38026E0606C___EAID_19612C07_E7D1_4113_AC69_41804AF20A6D&#45;&gt;EAID_CEA5660E_BD2E_44b6_9FF1_650F138632BD -->
<g id="edge26" class="edge">
<title>EAID_9B808F6C_94A4_4b0f_AD6C_C38026E0606C___EAID_19612C07_E7D1_4113_AC69_41804AF20A6D&#45;&gt;EAID_CEA5660E_BD2E_44b6_9FF1_650F138632BD</title>
<path fill="none" stroke="#000000" stroke-dasharray="5,2" d="M826.1819,-83.0084C861.2763,-76.0627 901.2862,-68.8723 938,-64 1084.8738,-44.5083 1252.6921,-32.6387 1375.7213,-25.8515"/>
<polygon fill="#000000" stroke="#000000" points="1376.1953,-29.3309 1385.9896,-25.291 1375.8137,-22.3413 1376.1953,-29.3309"/>
</g>
<!-- EAID_6F59D879_2534_4a49_83CC_060EC27AD518___EAID_9B808F6C_94A4_4b0f_AD6C_C38026E0606C&#45;&gt;EAID_9B808F6C_94A4_4b0f_AD6C_C38026E0606C___EAID_19612C07_E7D1_4113_AC69_41804AF20A6D -->
<g id="edge14" class="edge">
<title>EAID_6F59D879_2534_4a49_83CC_060EC27AD518___EAID_9B808F6C_94A4_4b0f_AD6C_C38026E0606C&#45;&gt;EAID_9B808F6C_94A4_4b0f_AD6C_C38026E0606C___EAID_19612C07_E7D1_4113_AC69_41804AF20A6D</title>
<path fill="none" stroke="#000000" d="M601.9396,-171.9467C620.4766,-162.0339 641.0428,-151.0359 660.1336,-140.8269"/>
<polygon fill="#000000" stroke="#000000" points="661.9112,-143.8454 669.079,-136.0433 658.6102,-137.6726 661.9112,-143.8454"/>
</g>
<!-- EAID_6F59D879_2534_4a49_83CC_060EC27AD518___EAID_9B808F6C_94A4_4b0f_AD6C_C38026E0606C&#45;&gt;EAID_93A0D65A_E9F5_4e29_9293_3F4A442BBD74 -->
<g id="edge27" class="edge">
<title>EAID_6F59D879_2534_4a49_83CC_060EC27AD518___EAID_9B808F6C_94A4_4b0f_AD6C_C38026E0606C&#45;&gt;EAID_93A0D65A_E9F5_4e29_9293_3F4A442BBD74</title>
<path fill="none" stroke="#000000" stroke-dasharray="5,2" d="M612.7238,-174.1654C615.4986,-173.3736 618.2638,-172.6467 621,-172 817.5532,-125.5462 873.807,-162.7187 1074,-136 1098.0704,-132.7874 1123.8954,-128.4118 1147.9651,-123.9283"/>
<polygon fill="#000000" stroke="#000000" points="1148.6271,-127.3652 1157.8048,-122.0718 1147.3292,-120.4866 1148.6271,-127.3652"/>
</g>
<!-- EAID_7E0D372B_BBE9_4c22_B762_17A776AC0591___EAID_9FF5AB6B_58AE_4920_952C_B6FD91B908D1_STL -->
<g id="node14" class="node">
<title>EAID_7E0D372B_BBE9_4c22_B762_17A776AC0591___EAID_9FF5AB6B_58AE_4920_952C_B6FD91B908D1_STL</title>
<image xlink:href="img/stimulus_icon.png" width="30px" height="20px" preserveAspectRatio="xMinYMin meet" x="608.5" y="-512"/>
<text text-anchor="start" x="559.8745" y="-477.8" font-family="Times,serif" font-weight="bold" font-size="14.00" fill="#000000">stl#FT:Coupon Invalid</text>
</g>
<!-- EAID_7E0D372B_BBE9_4c22_B762_17A776AC0591___EAID_9FF5AB6B_58AE_4920_952C_B6FD91B908D1_STL&#45;&gt;EAID_7E0D372B_BBE9_4c22_B762_17A776AC0591___EAID_9FF5AB6B_58AE_4920_952C_B6FD91B908D1 -->
<g id="edge2" class="edge">
<title>EAID_7E0D372B_BBE9_4c22_B762_17A776AC0591___EAID_9FF5AB6B_58AE_4920_952C_B6FD91B908D1_STL&#45;&gt;EAID_7E0D372B_BBE9_4c22_B762_17A776AC0591___EAID_9FF5AB6B_58AE_4920_952C_B6FD91B908D1</title>
<path fill="none" stroke="#000000" d="M623,-467.7771C623,-456.8636 623,-443.9049 623,-432.0774"/>
<polygon fill="#000000" stroke="#000000" points="626.5001,-432.0544 623,-422.0544 619.5001,-432.0544 626.5001,-432.0544"/>
</g>
<!-- EAID_7E0D372B_BBE9_4c22_B762_17A776AC0591___EAID_DBF53052_98E3_4331_951F_8641FCFDFE88_STL -->
<g id="node15" class="node">
<title>EAID_7E0D372B_BBE9_4c22_B762_17A776AC0591___EAID_DBF53052_98E3_4331_951F_8641FCFDFE88_STL</title>
<image xlink:href="img/stimulus_icon.png" width="30px" height="20px" preserveAspectRatio="xMinYMin meet" x="783" y="-512"/>
<text text-anchor="start" x="724.6606" y="-477.8" font-family="Times,serif" font-weight="bold" font-size="14.00" fill="#000000">stl#FT:Coupon Redeemed</text>
</g>
<!-- EAID_7E0D372B_BBE9_4c22_B762_17A776AC0591___EAID_DBF53052_98E3_4331_951F_8641FCFDFE88_STL&#45;&gt;EAID_7E0D372B_BBE9_4c22_B762_17A776AC0591___EAID_DBF53052_98E3_4331_951F_8641FCFDFE88 -->
<g id="edge4" class="edge">
<title>EAID_7E0D372B_BBE9_4c22_B762_17A776AC0591___EAID_DBF53052_98E3_4331_951F_8641FCFDFE88_STL&#45;&gt;EAID_7E0D372B_BBE9_4c22_B762_17A776AC0591___EAID_DBF53052_98E3_4331_951F_8641FCFDFE88</title>
<path fill="none" stroke="#000000" d="M798,-467.7771C798,-456.8636 798,-443.9049 798,-432.0774"/>
<polygon fill="#000000" stroke="#000000" points="801.5001,-432.0544 798,-422.0544 794.5001,-432.0544 801.5001,-432.0544"/>
</g>
<!-- EAID_7E0D372B_BBE9_4c22_B762_17A776AC0591___EAID_EF1BBFD3_6DE9_426f_AD6D_825367604AF7_STL -->
<g id="node16" class="node">
<title>EAID_7E0D372B_BBE9_4c22_B762_17A776AC0591___EAID_EF1BBFD3_6DE9_426f_AD6D_825367604AF7_STL</title>
<image xlink:href="img/stimulus_icon.png" width="30px" height="20px" preserveAspectRatio="xMinYMin meet" x="951" y="-512"/>
<text text-anchor="start" x="908.5952" y="-477.8" font-family="Times,serif" font-weight="bold" font-size="14.00" fill="#000000">stl#FT:Coupon Page</text>
</g>
<!-- EAID_7E0D372B_BBE9_4c22_B762_17A776AC0591___EAID_EF1BBFD3_6DE9_426f_AD6D_825367604AF7_STL&#45;&gt;EAID_7E0D372B_BBE9_4c22_B762_17A776AC0591___EAID_EF1BBFD3_6DE9_426f_AD6D_825367604AF7 -->
<g id="edge7" class="edge">
<title>EAID_7E0D372B_BBE9_4c22_B762_17A776AC0591___EAID_EF1BBFD3_6DE9_426f_AD6D_825367604AF7_STL&#45;&gt;EAID_7E0D372B_BBE9_4c22_B762_17A776AC0591___EAID_EF1BBFD3_6DE9_426f_AD6D_825367604AF7</title>
<path fill="none" stroke="#000000" d="M966,-467.7771C966,-456.8636 966,-443.9049 966,-432.0774"/>
<polygon fill="#000000" stroke="#000000" points="969.5001,-432.0544 966,-422.0544 962.5001,-432.0544 969.5001,-432.0544"/>
</g>
</g>
</svg>
