<?xml version="1.0" encoding="UTF-8" standalone="no"?>
<!DOCTYPE svg PUBLIC "-//W3C//DTD SVG 1.1//EN"
 "http://www.w3.org/Graphics/SVG/1.1/DTD/svg11.dtd">
<!-- Generated by graphviz version 2.40.1 (20161225.0304)
 -->
<!-- Title: g Pages: 1 -->
<svg width="1502pt" height="650pt"
 viewBox="0.00 0.00 1502.39 650.00" xmlns="http://www.w3.org/2000/svg" xmlns:xlink="http://www.w3.org/1999/xlink">
<g id="graph0" class="graph" transform="scale(1 1) rotate(0) translate(4 646)">
<title>g</title>
<polygon fill="#ffffff" stroke="transparent" points="-4,4 -4,-646 1498.3907,-646 1498.3907,4 -4,4"/>
<g id="clust1" class="cluster">
<title>cluster0</title>
<polygon fill="none" stroke="#000000" stroke-width="2" points="600.3907,-64 600.3907,-538 1486.3907,-538 1486.3907,-64 600.3907,-64"/>
<text text-anchor="start" x="1022.7769" y="-523.8" font-family="Times,serif" font-weight="bold" font-size="14.00" fill="#000000">System</text>
</g>
<g id="clust2" class="cluster">
<title>cluster1</title>
<polygon fill="none" stroke="#000000" stroke-width="2" points="590.3907,-546 590.3907,-634 786.3907,-634 786.3907,-546 590.3907,-546"/>
<text text-anchor="start" x="656.3165" y="-619.8" font-family="Times,serif" font-weight="bold" font-size="14.00" fill="#000000">Add Server</text>
</g>
<g id="clust3" class="cluster">
<title>cluster2</title>
<polygon fill="none" stroke="#000000" stroke-width="2" points="978.3907,-546 978.3907,-634 1302.3907,-634 1302.3907,-546 978.3907,-546"/>
<text text-anchor="start" x="1123.6597" y="-619.8" font-family="Times,serif" font-weight="bold" font-size="14.00" fill="#000000">FTSR</text>
</g>
<!-- EAID_0036376E_1597_49fe_B631_18FD6BA00A40___EAID_CED7D6B7_8709_4981_8EDE_2C9F412DD26A -->
<g id="node1" class="node">
<title>EAID_0036376E_1597_49fe_B631_18FD6BA00A40___EAID_CED7D6B7_8709_4981_8EDE_2C9F412DD26A</title>
<image xlink:href="img/activity_icon.png" width="30px" height="20px" preserveAspectRatio="xMinYMin meet" x="673.391" y="-502"/>
<text text-anchor="start" x="618.1378" y="-467.8" font-family="Times,serif" font-weight="bold" font-size="14.00" fill="#000000">Add Server:Publish offer</text>
</g>
<!-- EAID_93A0D65A_E9F5_4e29_9293_3F4A442BBD74 -->
<g id="node16" class="node">
<title>EAID_93A0D65A_E9F5_4e29_9293_3F4A442BBD74</title>
<text text-anchor="middle" x="175.3907" y="-13.8" font-family="Times,serif" font-size="14.00" fill="#000000">EAID_93A0D65A_E9F5_4e29_9293_3F4A442BBD74</text>
</g>
<!-- EAID_0036376E_1597_49fe_B631_18FD6BA00A40___EAID_CED7D6B7_8709_4981_8EDE_2C9F412DD26A&#45;&gt;EAID_93A0D65A_E9F5_4e29_9293_3F4A442BBD74 -->
<g id="edge14" class="edge">
<title>EAID_0036376E_1597_49fe_B631_18FD6BA00A40___EAID_CED7D6B7_8709_4981_8EDE_2C9F412DD26A&#45;&gt;EAID_93A0D65A_E9F5_4e29_9293_3F4A442BBD74</title>
<path fill="none" stroke="#000000" stroke-dasharray="5,2" d="M608.3217,-480.8725C441.9505,-475.7049 70.7656,-460.0101 28.3907,-422 -11.4485,-386.2644 4.3907,-357.5182 4.3907,-304 4.3907,-304 4.3907,-304 4.3907,-204 4.3907,-140.8701 -13.1721,-111.5175 28.3907,-64 36.5505,-54.6712 58.0743,-46.0671 82.2142,-38.8859"/>
<polygon fill="#000000" stroke="#000000" points="83.2892,-42.2189 91.9407,-36.103 81.3636,-35.4889 83.2892,-42.2189"/>
</g>
<!-- EAID_9B232D50_BEFA_4c3c_9BFA_9B5D9F667561___EAID_66660860_6F87_45e6_9DFB_69BFA51BC7CF -->
<g id="node2" class="node">
<title>EAID_9B232D50_BEFA_4c3c_9BFA_9B5D9F667561___EAID_66660860_6F87_45e6_9DFB_69BFA51BC7CF</title>
<image xlink:href="img/activity_icon.png" width="30px" height="20px" preserveAspectRatio="xMinYMin meet" x="844.891" y="-502"/>
<text text-anchor="start" x="807.3258" y="-467.8" font-family="Times,serif" font-weight="bold" font-size="14.00" fill="#000000">FTSR:offers pages</text>
</g>
<!-- EAID_66660860_6F87_45e6_9DFB_69BFA51BC7CF___EAID_24C18A9A_6102_42dd_AB56_7E318DFB0BF5 -->
<g id="node11" class="node">
<title>EAID_66660860_6F87_45e6_9DFB_69BFA51BC7CF___EAID_24C18A9A_6102_42dd_AB56_7E318DFB0BF5</title>
<image xlink:href="img/activity_icon.png" width="30px" height="20px" preserveAspectRatio="xMinYMin meet" x="844.891" y="-416"/>
<text text-anchor="start" x="787.0538" y="-381.8" font-family="Times,serif" font-weight="bold" font-size="14.00" fill="#000000">offers pages:Display offer</text>
</g>
<!-- EAID_9B232D50_BEFA_4c3c_9BFA_9B5D9F667561___EAID_66660860_6F87_45e6_9DFB_69BFA51BC7CF&#45;&gt;EAID_66660860_6F87_45e6_9DFB_69BFA51BC7CF___EAID_24C18A9A_6102_42dd_AB56_7E318DFB0BF5 -->
<g id="edge2" class="edge">
<title>EAID_9B232D50_BEFA_4c3c_9BFA_9B5D9F667561___EAID_66660860_6F87_45e6_9DFB_69BFA51BC7CF&#45;&gt;EAID_66660860_6F87_45e6_9DFB_69BFA51BC7CF___EAID_24C18A9A_6102_42dd_AB56_7E318DFB0BF5</title>
<path fill="none" stroke="#000000" d="M859.3907,-457.6623C859.3907,-449.7016 859.3907,-440.7633 859.3907,-432.2449"/>
<polygon fill="#000000" stroke="#000000" points="862.8908,-432.1566 859.3907,-422.1566 855.8908,-432.1566 862.8908,-432.1566"/>
</g>
<!-- EAID_9B232D50_BEFA_4c3c_9BFA_9B5D9F667561___EAID_66660860_6F87_45e6_9DFB_69BFA51BC7CF&#45;&gt;EAID_93A0D65A_E9F5_4e29_9293_3F4A442BBD74 -->
<g id="edge15" class="edge">
<title>EAID_9B232D50_BEFA_4c3c_9BFA_9B5D9F667561___EAID_66660860_6F87_45e6_9DFB_69BFA51BC7CF&#45;&gt;EAID_93A0D65A_E9F5_4e29_9293_3F4A442BBD74</title>
<path fill="none" stroke="#000000" stroke-dasharray="5,2" d="M796.8749,-463.311C790.3186,-461.4348 783.7337,-459.6279 777.3907,-458 615.7495,-416.5142 42.3907,-470.88 42.3907,-304 42.3907,-304 42.3907,-304 42.3907,-204 42.3907,-140.5455 30.6075,-113.4344 70.3907,-64 78.043,-54.4913 88.0548,-46.8986 98.8566,-40.8494"/>
<polygon fill="#000000" stroke="#000000" points="100.7775,-43.798 108.0813,-36.1231 97.5855,-37.5681 100.7775,-43.798"/>
</g>
<!-- EAID_9B232D50_BEFA_4c3c_9BFA_9B5D9F667561___EAID_FF771361_441E_4f82_ACEB_456A6DC1A246 -->
<g id="node3" class="node">
<title>EAID_9B232D50_BEFA_4c3c_9BFA_9B5D9F667561___EAID_FF771361_441E_4f82_ACEB_456A6DC1A246</title>
<image xlink:href="img/activity_icon.png" width="30px" height="20px" preserveAspectRatio="xMinYMin meet" x="1401.39" y="-323"/>
<text text-anchor="start" x="1364.2154" y="-288.8" font-family="Times,serif" font-weight="bold" font-size="14.00" fill="#000000">FTSR:offer details</text>
</g>
<!-- EAID_FF771361_441E_4f82_ACEB_456A6DC1A246___EAID_242F83AE_7539_42bd_955E_3AA0AEAC3266 -->
<g id="node7" class="node">
<title>EAID_FF771361_441E_4f82_ACEB_456A6DC1A246___EAID_242F83AE_7539_42bd_955E_3AA0AEAC3266</title>
<image xlink:href="img/activity_icon.png" width="30px" height="20px" preserveAspectRatio="xMinYMin meet" x="1027.39" y="-223"/>
<text text-anchor="start" x="965.1583" y="-188.8" font-family="Times,serif" font-weight="bold" font-size="14.00" fill="#000000">offer details:Check validate</text>
</g>
<!-- EAID_9B232D50_BEFA_4c3c_9BFA_9B5D9F667561___EAID_FF771361_441E_4f82_ACEB_456A6DC1A246&#45;&gt;EAID_FF771361_441E_4f82_ACEB_456A6DC1A246___EAID_242F83AE_7539_42bd_955E_3AA0AEAC3266 -->
<g id="edge4" class="edge">
<title>EAID_9B232D50_BEFA_4c3c_9BFA_9B5D9F667561___EAID_FF771361_441E_4f82_ACEB_456A6DC1A246&#45;&gt;EAID_FF771361_441E_4f82_ACEB_456A6DC1A246___EAID_242F83AE_7539_42bd_955E_3AA0AEAC3266</title>
<path fill="none" stroke="#000000" d="M1363.7445,-278.8622C1357.6262,-276.3632 1351.4185,-274.0116 1345.3907,-272 1277.9336,-249.488 1199.5479,-232.1215 1139.4052,-220.5748"/>
<polygon fill="#000000" stroke="#000000" points="1140.0129,-217.1277 1129.5354,-218.7006 1138.7069,-224.0048 1140.0129,-217.1277"/>
</g>
<!-- EAID_9B232D50_BEFA_4c3c_9BFA_9B5D9F667561___EAID_FF771361_441E_4f82_ACEB_456A6DC1A246&#45;&gt;EAID_93A0D65A_E9F5_4e29_9293_3F4A442BBD74 -->
<g id="edge16" class="edge">
<title>EAID_9B232D50_BEFA_4c3c_9BFA_9B5D9F667561___EAID_FF771361_441E_4f82_ACEB_456A6DC1A246&#45;&gt;EAID_93A0D65A_E9F5_4e29_9293_3F4A442BBD74</title>
<path fill="none" stroke="#000000" stroke-dasharray="5,2" d="M1395.7158,-278.6527C1351.7941,-226.9736 1243.2605,-110.4055 1122.3907,-64 1052.612,-37.2098 605.1204,-25.2788 351.0294,-20.6078"/>
<polygon fill="#000000" stroke="#000000" points="351.0126,-17.107 340.9506,-20.4245 350.8852,-24.1059 351.0126,-17.107"/>
</g>
<!-- EAID_90328767_BF60_4e4f_B94A_99A38E1CBEEE___EAID_FF771361_441E_4f82_ACEB_456A6DC1A246 -->
<g id="node4" class="node">
<title>EAID_90328767_BF60_4e4f_B94A_99A38E1CBEEE___EAID_FF771361_441E_4f82_ACEB_456A6DC1A246</title>
<image xlink:href="img/activity_icon.png" width="30px" height="20px" preserveAspectRatio="xMinYMin meet" x="1046.39" y="-330"/>
<text text-anchor="start" x="977.9273" y="-295.8" font-family="Times,serif" font-weight="bold" font-size="14.00" fill="#000000">Auto publish reschedule:offer</text>
<text text-anchor="start" x="1043.1182" y="-281.8" font-family="Times,serif" font-weight="bold" font-size="14.00" fill="#000000">details</text>
</g>
<!-- EAID_90328767_BF60_4e4f_B94A_99A38E1CBEEE___EAID_FF771361_441E_4f82_ACEB_456A6DC1A246&#45;&gt;EAID_FF771361_441E_4f82_ACEB_456A6DC1A246___EAID_242F83AE_7539_42bd_955E_3AA0AEAC3266 -->
<g id="edge6" class="edge">
<title>EAID_90328767_BF60_4e4f_B94A_99A38E1CBEEE___EAID_FF771361_441E_4f82_ACEB_456A6DC1A246&#45;&gt;EAID_FF771361_441E_4f82_ACEB_456A6DC1A246___EAID_242F83AE_7539_42bd_955E_3AA0AEAC3266</title>
<path fill="none" stroke="#000000" d="M1055.2744,-271.8089C1053.2849,-261.338 1051.0677,-249.6685 1049.0412,-239.0025"/>
<polygon fill="#000000" stroke="#000000" points="1052.4754,-238.3264 1047.1703,-229.1555 1045.5985,-239.6331 1052.4754,-238.3264"/>
</g>
<!-- EAID_90328767_BF60_4e4f_B94A_99A38E1CBEEE___EAID_FF771361_441E_4f82_ACEB_456A6DC1A246&#45;&gt;EAID_93A0D65A_E9F5_4e29_9293_3F4A442BBD74 -->
<g id="edge17" class="edge">
<title>EAID_90328767_BF60_4e4f_B94A_99A38E1CBEEE___EAID_FF771361_441E_4f82_ACEB_456A6DC1A246&#45;&gt;EAID_93A0D65A_E9F5_4e29_9293_3F4A442BBD74</title>
<path fill="none" stroke="#000000" stroke-dasharray="5,2" d="M968.2462,-273.7233C965.2718,-273.0949 962.3148,-272.5173 959.3907,-272 874.0676,-256.9062 240.9437,-297.9774 180.3907,-236 130.83,-185.2734 151.1255,-92.0519 165.5793,-45.6913"/>
<polygon fill="#000000" stroke="#000000" points="168.9617,-46.6074 168.7258,-36.0152 162.3049,-44.4427 168.9617,-46.6074"/>
</g>
<!-- EAID_242F83AE_7539_42bd_955E_3AA0AEAC3266___EAID_CED7D6B7_8709_4981_8EDE_2C9F412DD26A -->
<g id="node5" class="node">
<title>EAID_242F83AE_7539_42bd_955E_3AA0AEAC3266___EAID_CED7D6B7_8709_4981_8EDE_2C9F412DD26A</title>
<image xlink:href="img/activity_icon.png" width="30px" height="20px" preserveAspectRatio="xMinYMin meet" x="1008.89" y="-123"/>
<text text-anchor="start" x="943.9239" y="-88.8" font-family="Times,serif" font-weight="bold" font-size="14.00" fill="#000000">Check validate:Publish offer</text>
</g>
<!-- EAID_242F83AE_7539_42bd_955E_3AA0AEAC3266___EAID_CED7D6B7_8709_4981_8EDE_2C9F412DD26A&#45;&gt;EAID_93A0D65A_E9F5_4e29_9293_3F4A442BBD74 -->
<g id="edge18" class="edge">
<title>EAID_242F83AE_7539_42bd_955E_3AA0AEAC3266___EAID_CED7D6B7_8709_4981_8EDE_2C9F412DD26A&#45;&gt;EAID_93A0D65A_E9F5_4e29_9293_3F4A442BBD74</title>
<path fill="none" stroke="#000000" stroke-dasharray="5,2" d="M949.2771,-78.976C929.3875,-73.1511 907.7473,-67.6052 887.3907,-64 788.3071,-46.4521 528.2089,-32.6498 351.3819,-24.9068"/>
<polygon fill="#000000" stroke="#000000" points="351.3225,-21.401 341.1797,-24.4627 351.018,-28.3944 351.3225,-21.401"/>
</g>
<!-- EAID_242F83AE_7539_42bd_955E_3AA0AEAC3266___EAID_3CDBEF14_A1B6_45b8_9E10_E651D4C84F4C -->
<g id="node6" class="node">
<title>EAID_242F83AE_7539_42bd_955E_3AA0AEAC3266___EAID_3CDBEF14_A1B6_45b8_9E10_E651D4C84F4C</title>
<image xlink:href="img/activity_icon.png" width="30px" height="20px" preserveAspectRatio="xMinYMin meet" x="766.391" y="-130"/>
<text text-anchor="start" x="693.9112" y="-95.8" font-family="Times,serif" font-weight="bold" font-size="14.00" fill="#000000">Check validate:Display modify</text>
<text text-anchor="start" x="767.7906" y="-81.8" font-family="Times,serif" font-weight="bold" font-size="14.00" fill="#000000">error</text>
</g>
<!-- EAID_242F83AE_7539_42bd_955E_3AA0AEAC3266___EAID_3CDBEF14_A1B6_45b8_9E10_E651D4C84F4C&#45;&gt;EAID_93A0D65A_E9F5_4e29_9293_3F4A442BBD74 -->
<g id="edge19" class="edge">
<title>EAID_242F83AE_7539_42bd_955E_3AA0AEAC3266___EAID_3CDBEF14_A1B6_45b8_9E10_E651D4C84F4C&#45;&gt;EAID_93A0D65A_E9F5_4e29_9293_3F4A442BBD74</title>
<path fill="none" stroke="#000000" stroke-dasharray="5,2" d="M684.153,-80.32C657.4433,-74.3825 628.3979,-68.4448 601.3907,-64 519.6409,-50.5457 428.3918,-40.0916 351.3821,-32.5736"/>
<polygon fill="#000000" stroke="#000000" points="351.3882,-29.058 341.0976,-31.5788 350.7141,-36.0254 351.3882,-29.058"/>
</g>
<!-- EAID_FF771361_441E_4f82_ACEB_456A6DC1A246___EAID_242F83AE_7539_42bd_955E_3AA0AEAC3266&#45;&gt;EAID_242F83AE_7539_42bd_955E_3AA0AEAC3266___EAID_CED7D6B7_8709_4981_8EDE_2C9F412DD26A -->
<g id="edge7" class="edge">
<title>EAID_FF771361_441E_4f82_ACEB_456A6DC1A246___EAID_242F83AE_7539_42bd_955E_3AA0AEAC3266&#45;&gt;EAID_242F83AE_7539_42bd_955E_3AA0AEAC3266___EAID_CED7D6B7_8709_4981_8EDE_2C9F412DD26A</title>
<path fill="none" stroke="#000000" d="M1037.5962,-178.7658C1035.3235,-166.8042 1032.5701,-152.3127 1030.0948,-139.2845"/>
<polygon fill="#000000" stroke="#000000" points="1033.4888,-138.3971 1028.1837,-129.2261 1026.6119,-139.7037 1033.4888,-138.3971"/>
</g>
<!-- EAID_FF771361_441E_4f82_ACEB_456A6DC1A246___EAID_242F83AE_7539_42bd_955E_3AA0AEAC3266&#45;&gt;EAID_242F83AE_7539_42bd_955E_3AA0AEAC3266___EAID_3CDBEF14_A1B6_45b8_9E10_E651D4C84F4C -->
<g id="edge8" class="edge">
<title>EAID_FF771361_441E_4f82_ACEB_456A6DC1A246___EAID_242F83AE_7539_42bd_955E_3AA0AEAC3266&#45;&gt;EAID_242F83AE_7539_42bd_955E_3AA0AEAC3266___EAID_3CDBEF14_A1B6_45b8_9E10_E651D4C84F4C</title>
<path fill="none" stroke="#000000" d="M976.8663,-178.8949C945.9485,-167.049 908.4981,-152.7002 874.6843,-139.7447"/>
<polygon fill="#000000" stroke="#000000" points="875.8423,-136.4403 865.252,-136.1308 873.3378,-142.9769 875.8423,-136.4403"/>
</g>
<!-- EAID_CEA5660E_BD2E_44b6_9FF1_650F138632BD -->
<g id="node17" class="node">
<title>EAID_CEA5660E_BD2E_44b6_9FF1_650F138632BD</title>
<text text-anchor="middle" x="426.3907" y="-99.8" font-family="Times,serif" font-size="14.00" fill="#000000">EAID_CEA5660E_BD2E_44b6_9FF1_650F138632BD</text>
</g>
<!-- EAID_FF771361_441E_4f82_ACEB_456A6DC1A246___EAID_242F83AE_7539_42bd_955E_3AA0AEAC3266&#45;&gt;EAID_CEA5660E_BD2E_44b6_9FF1_650F138632BD -->
<g id="edge20" class="edge">
<title>EAID_FF771361_441E_4f82_ACEB_456A6DC1A246___EAID_242F83AE_7539_42bd_955E_3AA0AEAC3266&#45;&gt;EAID_CEA5660E_BD2E_44b6_9FF1_650F138632BD</title>
<path fill="none" stroke="#000000" stroke-dasharray="5,2" d="M955.0764,-191.6033C865.0583,-178.608 720.7048,-157.1704 596.3907,-136 574.5679,-132.2836 551.2181,-128.0544 529.03,-123.9158"/>
<polygon fill="#000000" stroke="#000000" points="529.4004,-120.4243 518.9268,-122.0228 528.1112,-127.3046 529.4004,-120.4243"/>
</g>
<!-- EAID_FEF892BF_E4BD_48f9_98C4_38CAF1DB7E39___EAID_2E6D6CD0_A290_4995_900E_C6F53330DF2E -->
<g id="node8" class="node">
<title>EAID_FEF892BF_E4BD_48f9_98C4_38CAF1DB7E39___EAID_2E6D6CD0_A290_4995_900E_C6F53330DF2E</title>
<image xlink:href="img/activity_icon.png" width="30px" height="20px" preserveAspectRatio="xMinYMin meet" x="685.891" y="-230"/>
<text text-anchor="start" x="618.9893" y="-195.8" font-family="Times,serif" font-weight="bold" font-size="14.00" fill="#000000">Retrieve offers:Dispaly Error</text>
<text text-anchor="start" x="688.4425" y="-181.8" font-family="Times,serif" font-weight="bold" font-size="14.00" fill="#000000">Msg</text>
</g>
<!-- EAID_FEF892BF_E4BD_48f9_98C4_38CAF1DB7E39___EAID_2E6D6CD0_A290_4995_900E_C6F53330DF2E&#45;&gt;EAID_93A0D65A_E9F5_4e29_9293_3F4A442BBD74 -->
<g id="edge21" class="edge">
<title>EAID_FEF892BF_E4BD_48f9_98C4_38CAF1DB7E39___EAID_2E6D6CD0_A290_4995_900E_C6F53330DF2E&#45;&gt;EAID_93A0D65A_E9F5_4e29_9293_3F4A442BBD74</title>
<path fill="none" stroke="#000000" stroke-dasharray="5,2" d="M608.7359,-199.2771C494.7597,-191.8604 308.2519,-174.1841 251.3907,-136 220.4478,-115.2209 228.8275,-95.1701 208.3907,-64 204.167,-57.558 199.4364,-50.749 194.9052,-44.4014"/>
<polygon fill="#000000" stroke="#000000" points="197.6087,-42.1667 188.9162,-36.1094 191.9341,-46.2654 197.6087,-42.1667"/>
</g>
<!-- EAID_24C18A9A_6102_42dd_AB56_7E318DFB0BF5___EAID_FEF892BF_E4BD_48f9_98C4_38CAF1DB7E39 -->
<g id="node9" class="node">
<title>EAID_24C18A9A_6102_42dd_AB56_7E318DFB0BF5___EAID_FEF892BF_E4BD_48f9_98C4_38CAF1DB7E39</title>
<image xlink:href="img/activity_icon.png" width="30px" height="20px" preserveAspectRatio="xMinYMin meet" x="844.891" y="-323"/>
<text text-anchor="start" x="779.2813" y="-288.8" font-family="Times,serif" font-weight="bold" font-size="14.00" fill="#000000">Display offer:Retrieve offers</text>
</g>
<!-- EAID_24C18A9A_6102_42dd_AB56_7E318DFB0BF5___EAID_FEF892BF_E4BD_48f9_98C4_38CAF1DB7E39&#45;&gt;EAID_FEF892BF_E4BD_48f9_98C4_38CAF1DB7E39___EAID_2E6D6CD0_A290_4995_900E_C6F53330DF2E -->
<g id="edge9" class="edge">
<title>EAID_24C18A9A_6102_42dd_AB56_7E318DFB0BF5___EAID_FEF892BF_E4BD_48f9_98C4_38CAF1DB7E39&#45;&gt;EAID_FEF892BF_E4BD_48f9_98C4_38CAF1DB7E39___EAID_2E6D6CD0_A290_4995_900E_C6F53330DF2E</title>
<path fill="none" stroke="#000000" d="M819.2683,-278.7658C801.3174,-267.4759 779.783,-253.9323 760.0037,-241.4925"/>
<polygon fill="#000000" stroke="#000000" points="761.6838,-238.4144 751.3554,-236.0533 757.957,-244.3399 761.6838,-238.4144"/>
</g>
<!-- EAID_24C18A9A_6102_42dd_AB56_7E318DFB0BF5___EAID_FEF892BF_E4BD_48f9_98C4_38CAF1DB7E39&#45;&gt;EAID_93A0D65A_E9F5_4e29_9293_3F4A442BBD74 -->
<g id="edge22" class="edge">
<title>EAID_24C18A9A_6102_42dd_AB56_7E318DFB0BF5___EAID_FEF892BF_E4BD_48f9_98C4_38CAF1DB7E39&#45;&gt;EAID_93A0D65A_E9F5_4e29_9293_3F4A442BBD74</title>
<path fill="none" stroke="#000000" stroke-dasharray="5,2" d="M788.6646,-278.9578C778.926,-276.2203 768.9783,-273.7842 759.3907,-272 691.8777,-259.4361 189.5138,-285.9527 142.3907,-236 89.9342,-180.3936 118.9869,-136.7737 142.3907,-64 144.5742,-57.2106 148.1711,-50.5743 152.2049,-44.5498"/>
<polygon fill="#000000" stroke="#000000" points="155.2254,-46.3493 158.3135,-36.2144 149.5793,-42.2114 155.2254,-46.3493"/>
</g>
<!-- EAID_24C18A9A_6102_42dd_AB56_7E318DFB0BF5___EAID_FF771361_441E_4f82_ACEB_456A6DC1A246 -->
<g id="node10" class="node">
<title>EAID_24C18A9A_6102_42dd_AB56_7E318DFB0BF5___EAID_FF771361_441E_4f82_ACEB_456A6DC1A246</title>
<image xlink:href="img/activity_icon.png" width="30px" height="20px" preserveAspectRatio="xMinYMin meet" x="1239.39" y="-323"/>
<text text-anchor="start" x="1181.9434" y="-288.8" font-family="Times,serif" font-weight="bold" font-size="14.00" fill="#000000">Display offer:offer details</text>
</g>
<!-- EAID_24C18A9A_6102_42dd_AB56_7E318DFB0BF5___EAID_FF771361_441E_4f82_ACEB_456A6DC1A246&#45;&gt;EAID_FF771361_441E_4f82_ACEB_456A6DC1A246___EAID_242F83AE_7539_42bd_955E_3AA0AEAC3266 -->
<g id="edge10" class="edge">
<title>EAID_24C18A9A_6102_42dd_AB56_7E318DFB0BF5___EAID_FF771361_441E_4f82_ACEB_456A6DC1A246&#45;&gt;EAID_FF771361_441E_4f82_ACEB_456A6DC1A246___EAID_242F83AE_7539_42bd_955E_3AA0AEAC3266</title>
<path fill="none" stroke="#000000" d="M1201.1678,-278.8949C1171.9341,-265.1054 1135.5102,-247.9243 1104.9255,-233.4975"/>
<polygon fill="#000000" stroke="#000000" points="1106.173,-230.2162 1095.6355,-229.1155 1103.1867,-236.5472 1106.173,-230.2162"/>
</g>
<!-- EAID_24C18A9A_6102_42dd_AB56_7E318DFB0BF5___EAID_FF771361_441E_4f82_ACEB_456A6DC1A246&#45;&gt;EAID_93A0D65A_E9F5_4e29_9293_3F4A442BBD74 -->
<g id="edge23" class="edge">
<title>EAID_24C18A9A_6102_42dd_AB56_7E318DFB0BF5___EAID_FF771361_441E_4f82_ACEB_456A6DC1A246&#45;&gt;EAID_93A0D65A_E9F5_4e29_9293_3F4A442BBD74</title>
<path fill="none" stroke="#000000" stroke-dasharray="5,2" d="M1189.8834,-278.8896C1181.0843,-276.182 1172.0879,-273.7721 1163.3907,-272 953.343,-229.2026 361.6956,-285.8308 208.3907,-136 184.4569,-112.6085 177.4769,-73.4025 175.652,-46.6537"/>
<polygon fill="#000000" stroke="#000000" points="179.1345,-46.2021 175.1604,-36.3809 172.1425,-46.5368 179.1345,-46.2021"/>
</g>
<!-- EAID_66660860_6F87_45e6_9DFB_69BFA51BC7CF___EAID_24C18A9A_6102_42dd_AB56_7E318DFB0BF5&#45;&gt;EAID_24C18A9A_6102_42dd_AB56_7E318DFB0BF5___EAID_FEF892BF_E4BD_48f9_98C4_38CAF1DB7E39 -->
<g id="edge11" class="edge">
<title>EAID_66660860_6F87_45e6_9DFB_69BFA51BC7CF___EAID_24C18A9A_6102_42dd_AB56_7E318DFB0BF5&#45;&gt;EAID_24C18A9A_6102_42dd_AB56_7E318DFB0BF5___EAID_FEF892BF_E4BD_48f9_98C4_38CAF1DB7E39</title>
<path fill="none" stroke="#000000" d="M859.3907,-371.5873C859.3907,-361.5615 859.3907,-349.8763 859.3907,-339.0694"/>
<polygon fill="#000000" stroke="#000000" points="862.8908,-339.0599 859.3907,-329.0599 855.8908,-339.06 862.8908,-339.0599"/>
</g>
<!-- EAID_66660860_6F87_45e6_9DFB_69BFA51BC7CF___EAID_24C18A9A_6102_42dd_AB56_7E318DFB0BF5&#45;&gt;EAID_24C18A9A_6102_42dd_AB56_7E318DFB0BF5___EAID_FF771361_441E_4f82_ACEB_456A6DC1A246 -->
<g id="edge12" class="edge">
<title>EAID_66660860_6F87_45e6_9DFB_69BFA51BC7CF___EAID_24C18A9A_6102_42dd_AB56_7E318DFB0BF5&#45;&gt;EAID_24C18A9A_6102_42dd_AB56_7E318DFB0BF5___EAID_FF771361_441E_4f82_ACEB_456A6DC1A246</title>
<path fill="none" stroke="#000000" d="M942.0543,-383.6424C1003.6083,-372.9178 1089.4232,-356.3187 1163.3907,-336 1167.6853,-334.8203 1172.0696,-333.5404 1176.4787,-332.1938"/>
<polygon fill="#000000" stroke="#000000" points="1177.6568,-335.4923 1186.1454,-329.1523 1175.5559,-328.815 1177.6568,-335.4923"/>
</g>
<!-- EAID_02074B64_AFA1_48ec_BCA5_328787D1DBA8 -->
<g id="node18" class="node">
<title>EAID_02074B64_AFA1_48ec_BCA5_328787D1DBA8</title>
<text text-anchor="middle" x="423.3907" y="-299.8" font-family="Times,serif" font-size="14.00" fill="#000000">EAID_02074B64_AFA1_48ec_BCA5_328787D1DBA8</text>
</g>
<!-- EAID_66660860_6F87_45e6_9DFB_69BFA51BC7CF___EAID_24C18A9A_6102_42dd_AB56_7E318DFB0BF5&#45;&gt;EAID_02074B64_AFA1_48ec_BCA5_328787D1DBA8 -->
<g id="edge24" class="edge">
<title>EAID_66660860_6F87_45e6_9DFB_69BFA51BC7CF___EAID_24C18A9A_6102_42dd_AB56_7E318DFB0BF5&#45;&gt;EAID_02074B64_AFA1_48ec_BCA5_328787D1DBA8</title>
<path fill="none" stroke="#000000" stroke-dasharray="5,2" d="M776.8699,-379.3981C703.154,-363.6743 595.1966,-340.6467 518.008,-324.1821"/>
<polygon fill="#000000" stroke="#000000" points="518.3133,-320.6686 507.8031,-322.0054 516.8529,-327.5146 518.3133,-320.6686"/>
</g>
<!-- EAID_908D1F4B_1A67_444b_9639_97A03919BE7E___EAID_FEF892BF_E4BD_48f9_98C4_38CAF1DB7E39 -->
<g id="node12" class="node">
<title>EAID_908D1F4B_1A67_444b_9639_97A03919BE7E___EAID_FEF892BF_E4BD_48f9_98C4_38CAF1DB7E39</title>
<image xlink:href="img/activity_icon.png" width="30px" height="20px" preserveAspectRatio="xMinYMin meet" x="664.391" y="-323"/>
<text text-anchor="start" x="618.0279" y="-288.8" font-family="Times,serif" font-weight="bold" font-size="14.00" fill="#000000">Offers:Retrieve offers</text>
</g>
<!-- EAID_908D1F4B_1A67_444b_9639_97A03919BE7E___EAID_FEF892BF_E4BD_48f9_98C4_38CAF1DB7E39&#45;&gt;EAID_FEF892BF_E4BD_48f9_98C4_38CAF1DB7E39___EAID_2E6D6CD0_A290_4995_900E_C6F53330DF2E -->
<g id="edge13" class="edge">
<title>EAID_908D1F4B_1A67_444b_9639_97A03919BE7E___EAID_FEF892BF_E4BD_48f9_98C4_38CAF1DB7E39&#45;&gt;EAID_FEF892BF_E4BD_48f9_98C4_38CAF1DB7E39___EAID_2E6D6CD0_A290_4995_900E_C6F53330DF2E</title>
<path fill="none" stroke="#000000" d="M684.6899,-278.7658C686.7737,-268.8428 689.2231,-257.1789 691.5595,-246.0535"/>
<polygon fill="#000000" stroke="#000000" points="695.0296,-246.5591 693.6595,-236.0533 688.179,-245.1205 695.0296,-246.5591"/>
</g>
<!-- EAID_908D1F4B_1A67_444b_9639_97A03919BE7E___EAID_FEF892BF_E4BD_48f9_98C4_38CAF1DB7E39&#45;&gt;EAID_93A0D65A_E9F5_4e29_9293_3F4A442BBD74 -->
<g id="edge25" class="edge">
<title>EAID_908D1F4B_1A67_444b_9639_97A03919BE7E___EAID_FEF892BF_E4BD_48f9_98C4_38CAF1DB7E39&#45;&gt;EAID_93A0D65A_E9F5_4e29_9293_3F4A442BBD74</title>
<path fill="none" stroke="#000000" stroke-dasharray="5,2" d="M622.8313,-278.9062C615.0719,-276.1959 607.1163,-273.7808 599.3907,-272 545.6546,-259.6133 141.9435,-276.383 104.3907,-236 52.3337,-180.0195 67.8786,-131.1612 104.3907,-64 109.1785,-55.1932 116.4599,-47.8127 124.5649,-41.724"/>
<polygon fill="#000000" stroke="#000000" points="126.5864,-44.5819 132.8827,-36.0608 122.6469,-38.7957 126.5864,-44.5819"/>
</g>
<!-- EAID_0036376E_1597_49fe_B631_18FD6BA00A40___EAID_CED7D6B7_8709_4981_8EDE_2C9F412DD26A_STL -->
<g id="node13" class="node">
<title>EAID_0036376E_1597_49fe_B631_18FD6BA00A40___EAID_CED7D6B7_8709_4981_8EDE_2C9F412DD26A_STL</title>
<image xlink:href="img/stimulus_icon.png" width="30px" height="20px" preserveAspectRatio="xMinYMin meet" x="673.391" y="-598"/>
<text text-anchor="start" x="608.024" y="-563.8" font-family="Times,serif" font-weight="bold" font-size="14.00" fill="#000000">stl#Add Server:Publish offer</text>
</g>
<!-- EAID_0036376E_1597_49fe_B631_18FD6BA00A40___EAID_CED7D6B7_8709_4981_8EDE_2C9F412DD26A_STL&#45;&gt;EAID_0036376E_1597_49fe_B631_18FD6BA00A40___EAID_CED7D6B7_8709_4981_8EDE_2C9F412DD26A -->
<g id="edge1" class="edge">
<title>EAID_0036376E_1597_49fe_B631_18FD6BA00A40___EAID_CED7D6B7_8709_4981_8EDE_2C9F412DD26A_STL&#45;&gt;EAID_0036376E_1597_49fe_B631_18FD6BA00A40___EAID_CED7D6B7_8709_4981_8EDE_2C9F412DD26A</title>
<path fill="none" stroke="#000000" d="M688.3907,-553.7771C688.3907,-542.8636 688.3907,-529.9049 688.3907,-518.0774"/>
<polygon fill="#000000" stroke="#000000" points="691.8908,-518.0544 688.3907,-508.0544 684.8908,-518.0544 691.8908,-518.0544"/>
</g>
<!-- EAID_9B232D50_BEFA_4c3c_9BFA_9B5D9F667561___EAID_66660860_6F87_45e6_9DFB_69BFA51BC7CF_STL -->
<g id="node14" class="node">
<title>EAID_9B232D50_BEFA_4c3c_9BFA_9B5D9F667561___EAID_66660860_6F87_45e6_9DFB_69BFA51BC7CF_STL</title>
<image xlink:href="img/stimulus_icon.png" width="30px" height="20px" preserveAspectRatio="xMinYMin meet" x="1044.89" y="-598"/>
<text text-anchor="start" x="997.212" y="-563.8" font-family="Times,serif" font-weight="bold" font-size="14.00" fill="#000000">stl#FTSR:offers pages</text>
</g>
<!-- EAID_9B232D50_BEFA_4c3c_9BFA_9B5D9F667561___EAID_66660860_6F87_45e6_9DFB_69BFA51BC7CF_STL&#45;&gt;EAID_9B232D50_BEFA_4c3c_9BFA_9B5D9F667561___EAID_66660860_6F87_45e6_9DFB_69BFA51BC7CF -->
<g id="edge3" class="edge">
<title>EAID_9B232D50_BEFA_4c3c_9BFA_9B5D9F667561___EAID_66660860_6F87_45e6_9DFB_69BFA51BC7CF_STL&#45;&gt;EAID_9B232D50_BEFA_4c3c_9BFA_9B5D9F667561___EAID_66660860_6F87_45e6_9DFB_69BFA51BC7CF</title>
<path fill="none" stroke="#000000" d="M1007.1043,-553.9025C980.6924,-541.2248 948.4802,-525.763 920.8852,-512.5174"/>
<polygon fill="#000000" stroke="#000000" points="922.2487,-509.2896 911.7189,-508.1175 919.2196,-515.6002 922.2487,-509.2896"/>
</g>
<!-- EAID_9B232D50_BEFA_4c3c_9BFA_9B5D9F667561___EAID_FF771361_441E_4f82_ACEB_456A6DC1A246_STL -->
<g id="node15" class="node">
<title>EAID_9B232D50_BEFA_4c3c_9BFA_9B5D9F667561___EAID_FF771361_441E_4f82_ACEB_456A6DC1A246_STL</title>
<image xlink:href="img/stimulus_icon.png" width="30px" height="20px" preserveAspectRatio="xMinYMin meet" x="1207.39" y="-598"/>
<text text-anchor="start" x="1160.1016" y="-563.8" font-family="Times,serif" font-weight="bold" font-size="14.00" fill="#000000">stl#FTSR:offer details</text>
</g>
<!-- EAID_9B232D50_BEFA_4c3c_9BFA_9B5D9F667561___EAID_FF771361_441E_4f82_ACEB_456A6DC1A246_STL&#45;&gt;EAID_9B232D50_BEFA_4c3c_9BFA_9B5D9F667561___EAID_FF771361_441E_4f82_ACEB_456A6DC1A246 -->
<g id="edge5" class="edge">
<title>EAID_9B232D50_BEFA_4c3c_9BFA_9B5D9F667561___EAID_FF771361_441E_4f82_ACEB_456A6DC1A246_STL&#45;&gt;EAID_9B232D50_BEFA_4c3c_9BFA_9B5D9F667561___EAID_FF771361_441E_4f82_ACEB_456A6DC1A246</title>
<path fill="none" stroke="#000000" d="M1240.294,-553.6216C1275.3751,-503.8933 1353.1645,-393.6248 1392.5514,-337.7928"/>
<polygon fill="#000000" stroke="#000000" points="1395.6261,-339.506 1398.5307,-329.3171 1389.9061,-335.4708 1395.6261,-339.506"/>
</g>
</g>
</svg>
