<?xml version="1.0" encoding="UTF-8" standalone="no"?>
<!DOCTYPE svg PUBLIC "-//W3C//DTD SVG 1.1//EN"
 "http://www.w3.org/Graphics/SVG/1.1/DTD/svg11.dtd">
<!-- Generated by graphviz version 2.40.1 (20161225.0304)
 -->
<!-- Title: g Pages: 1 -->
<svg width="340pt" height="264pt"
 viewBox="0.00 0.00 339.78 264.00" xmlns="http://www.w3.org/2000/svg" xmlns:xlink="http://www.w3.org/1999/xlink">
<g id="graph0" class="graph" transform="scale(1 1) rotate(0) translate(4 260)">
<title>g</title>
<polygon fill="#ffffff" stroke="transparent" points="-4,4 -4,-260 335.7793,-260 335.7793,4 -4,4"/>
<g id="clust1" class="cluster">
<title>cluster0</title>
<polygon fill="none" stroke="#000000" stroke-width="2" points="119.8896,-64 119.8896,-152 211.8896,-152 211.8896,-64 119.8896,-64"/>
<text text-anchor="start" x="145.2759" y="-137.8" font-family="Times,serif" font-weight="bold" font-size="14.00" fill="#000000">System</text>
</g>
<g id="clust2" class="cluster">
<title>cluster1</title>
<polygon fill="none" stroke="#000000" stroke-width="2" points="109.8896,-160 109.8896,-248 221.8896,-248 221.8896,-160 109.8896,-160"/>
<text text-anchor="start" x="152.6724" y="-233.8" font-family="Times,serif" font-weight="bold" font-size="14.00" fill="#000000">User</text>
</g>
<!-- EAID_00338ECC_B8BE_4a5b_9E30_50B9225C7651 -->
<g id="node1" class="node">
<title>EAID_00338ECC_B8BE_4a5b_9E30_50B9225C7651</title>
<image xlink:href="img/activity_icon.png" width="30px" height="20px" preserveAspectRatio="xMinYMin meet" x="151.39" y="-116"/>
<text text-anchor="start" x="138.7827" y="-81.8" font-family="Times,serif" font-weight="bold" font-size="14.00" fill="#000000">undefined</text>
</g>
<!-- EAID_301BD6AB_9D66_4e64_A84F_69B7550C508E -->
<g id="node3" class="node">
<title>EAID_301BD6AB_9D66_4e64_A84F_69B7550C508E</title>
<text text-anchor="middle" x="165.8896" y="-13.8" font-family="Times,serif" font-size="14.00" fill="#000000">EAID_301BD6AB_9D66_4e64_A84F_69B7550C508E</text>
</g>
<!-- EAID_00338ECC_B8BE_4a5b_9E30_50B9225C7651&#45;&gt;EAID_301BD6AB_9D66_4e64_A84F_69B7550C508E -->
<g id="edge2" class="edge">
<title>EAID_00338ECC_B8BE_4a5b_9E30_50B9225C7651&#45;&gt;EAID_301BD6AB_9D66_4e64_A84F_69B7550C508E</title>
<path fill="none" stroke="#000000" stroke-dasharray="5,2" d="M165.8896,-71.5691C165.8896,-63.5402 165.8896,-54.6193 165.8896,-46.397"/>
<polygon fill="#000000" stroke="#000000" points="169.3897,-46.1242 165.8896,-36.1242 162.3897,-46.1242 169.3897,-46.1242"/>
</g>
<!-- EAID_00338ECC_B8BE_4a5b_9E30_50B9225C7651_STL -->
<g id="node2" class="node">
<title>EAID_00338ECC_B8BE_4a5b_9E30_50B9225C7651_STL</title>
<image xlink:href="img/stimulus_icon.png" width="30px" height="20px" preserveAspectRatio="xMinYMin meet" x="151.39" y="-212"/>
<text text-anchor="start" x="128.6689" y="-177.8" font-family="Times,serif" font-weight="bold" font-size="14.00" fill="#000000">stl#undefined</text>
</g>
<!-- EAID_00338ECC_B8BE_4a5b_9E30_50B9225C7651_STL&#45;&gt;EAID_00338ECC_B8BE_4a5b_9E30_50B9225C7651 -->
<g id="edge1" class="edge">
<title>EAID_00338ECC_B8BE_4a5b_9E30_50B9225C7651_STL&#45;&gt;EAID_00338ECC_B8BE_4a5b_9E30_50B9225C7651</title>
<path fill="none" stroke="#000000" d="M165.8896,-167.7771C165.8896,-156.8636 165.8896,-143.9049 165.8896,-132.0774"/>
<polygon fill="#000000" stroke="#000000" points="169.3897,-132.0544 165.8896,-122.0544 162.3897,-132.0544 169.3897,-132.0544"/>
</g>
</g>
</svg>
